<?xml version="1.0" standalone="no"?>
<!DOCTYPE svg PUBLIC "-//W3C//DTD SVG 1.1//EN" "http://www.w3.org/Graphics/SVG/1.1/DTD/svg11.dtd">
<svg version="1.1" xmlns="http://www.w3.org/2000/svg" viewBox="0 0 1471.4256761666588 280.59805856412873" width="1471.4256761666588" height="280.59805856412873"><!-- svg-source:excalidraw --><metadata></metadata><defs><style class="style-fonts">
      </style></defs><rect x="0" y="0" width="1471.4256761666588" height="280.59805856412873" fill="#ffffff"></rect><g stroke-linecap="round"><g transform="translate(307.83966008781726 93.9492751958079) rotate(0 59.35886174189045 69.70816706809168)" fill-rule="evenodd"><path d="M0.35 -3.7 C0.8 18.2, 1.58 106.19, 3.65 128.62 C5.73 151.04, 10.18 140.29, 12.79 130.84 C15.4 121.4, 5.41 81.23, 19.3 71.94 C33.2 62.65, 79.8 78.56, 96.16 75.13 C112.51 71.71, 113.52 60.41, 117.42 51.39 C121.33 42.38, 122.03 27.74, 119.59 21.05 C117.16 14.35, 108.71 14.83, 102.81 11.24 C96.92 7.64, 91.47 0.81, 84.22 -0.54 C76.98 -1.89, 74.03 3.4, 59.35 3.15 C44.66 2.9, 5.28 -2.21, -3.89 -2.02" stroke="none" stroke-width="0" fill="#1e1e1e" fill-rule="evenodd"></path><path d="M0.78 0.95 C1.16 22.51, -0.18 108.43, 2.81 129.44 C5.81 150.46, 16.66 136.51, 18.75 127.03 C20.84 117.55, 2.37 81.41, 15.38 72.56 C28.38 63.7, 80.32 77, 96.78 73.89 C113.24 70.79, 110.5 62.83, 114.13 53.95 C117.76 45.07, 120.85 27.74, 118.55 20.63 C116.26 13.52, 106.2 14.26, 100.36 11.26 C94.53 8.26, 90.89 4.27, 83.57 2.61 C76.24 0.94, 69.99 1.79, 56.4 1.26 C42.81 0.74, 11.53 -0.22, 2.02 -0.54 M-2.24 -1 C-0.98 19.64, 5.01 103.15, 8.36 124.75 C11.71 146.36, 16.65 136.95, 17.85 128.62 C19.05 120.3, 2.89 83.58, 15.56 74.81 C28.24 66.04, 76.89 79.62, 93.91 75.98 C110.93 72.34, 113.56 61.39, 117.69 52.96 C121.83 44.52, 121.89 32.63, 118.72 25.37 C115.54 18.11, 104.93 13.65, 98.64 9.41 C92.35 5.18, 87.94 1.61, 81 -0.04 C74.07 -1.68, 69.89 -0.7, 57.04 -0.44 C44.18 -0.19, 12.67 1.75, 3.87 1.49" stroke="#1e1e1e" stroke-width="2" fill="none"></path></g></g><mask></mask><g stroke-linecap="round"><g transform="translate(322.97004551198324 107.12734441487675) rotate(0 41.096691284992175 23.285481130227453)" fill-rule="evenodd"><path d="M-1.82 1.35 C-1.61 10.05, -8.74 41.68, 3.56 48.85 C15.85 56.03, 57.04 48.84, 71.94 44.42 C86.84 40, 91.83 28.96, 92.97 22.33 C94.1 15.7, 94.87 8.44, 78.75 4.64 C62.63 0.85, 9.54 0.34, -3.75 -0.43" stroke="none" stroke-width="0" fill="#ffffff" fill-rule="evenodd"></path><path d="M-1.68 -0.79 C-1.83 6.44, -15.19 36.13, -2.08 43.48 C11.02 50.82, 61.84 46.59, 76.93 43.27 C92.01 39.94, 88.57 30.86, 88.42 23.53 C88.28 16.2, 90.69 3.43, 76.06 -0.7 C61.42 -4.82, 13.09 -1.03, 0.61 -1.22 M2.6 -3.69 C3.43 3.8, -9.02 37.56, 3.19 45.8 C15.39 54.04, 61.63 48.93, 75.81 45.75 C89.99 42.57, 87.45 34.46, 88.26 26.72 C89.06 18.98, 94.65 3.06, 80.65 -0.68 C66.65 -4.42, 17.16 3.76, 4.27 4.3" stroke="#1e1e1e" stroke-width="2" fill="none"></path></g></g><mask></mask><g stroke-linecap="round"><g transform="translate(464.70104015181687 140.92062151157023) rotate(0 23.58473665532165 44.60964641134649)" fill-rule="evenodd"><path d="M2.29 0.69 C-1.25 1.77, -17.95 3.47, -24.05 9.44 C-30.15 15.4, -33.3 27.39, -34.29 36.49 C-35.29 45.58, -32.8 56.35, -30.03 64.01 C-27.26 71.66, -22.62 78.46, -17.69 82.4 C-12.76 86.34, -10.41 86.69, -0.47 87.67 C9.47 88.65, 30.92 90.63, 41.96 88.3 C53 85.96, 59.46 80.45, 65.77 73.66 C72.08 66.87, 78.99 56.82, 79.83 47.57 C80.67 38.33, 75.44 26.04, 70.83 18.19 C66.22 10.34, 58.3 3.82, 52.18 0.48 C46.05 -2.86, 42.6 -2.11, 34.06 -1.83 C25.51 -1.55, 7.07 2.42, 0.9 2.15" stroke="none" stroke-width="0" fill="#1e1e1e" fill-rule="evenodd"></path><path d="M0.54 -1.33 C-3.67 0.62, -20.48 6.02, -25.95 12.07 C-31.41 18.11, -31.15 26.12, -32.24 34.93 C-33.33 43.75, -34.87 57.61, -32.47 64.95 C-30.07 72.3, -23.33 75.43, -17.86 79.02 C-12.39 82.61, -9.82 85.21, 0.35 86.48 C10.52 87.76, 32.69 88.65, 43.17 86.66 C53.66 84.66, 56.81 80.67, 63.26 74.5 C69.7 68.34, 80.33 58.65, 81.82 49.67 C83.32 40.68, 76.8 28.36, 72.24 20.6 C67.68 12.83, 61.53 7.21, 54.47 3.09 C47.41 -1.03, 38.77 -3.82, 29.88 -4.13 C20.99 -4.43, 6.2 0.68, 1.15 1.27 M-2.6 4.12 C-5.82 6.49, -15.11 10.07, -20.35 15.49 C-25.58 20.91, -32.09 29.24, -34.03 36.62 C-35.97 44.01, -34.25 52.61, -31.99 59.82 C-29.73 67.03, -26.42 74.61, -20.5 79.89 C-14.58 85.17, -7.39 89.6, 3.53 91.52 C14.44 93.44, 34.16 94.51, 44.99 91.41 C55.83 88.31, 62.91 80.46, 68.54 72.92 C74.17 65.37, 77.95 55.07, 78.78 46.11 C79.61 37.15, 77.3 26.03, 73.53 19.14 C69.76 12.26, 62.75 7.61, 56.16 4.81 C49.57 2, 42.97 3.1, 34 2.3 C25.02 1.5, 8.37 0.63, 2.31 0.01" stroke="#1e1e1e" stroke-width="2" fill="none"></path></g></g><mask></mask><g stroke-linecap="round"><g transform="translate(459.5645335584759 154.19190736773834) rotate(0 25.394386062896274 31.253383946256434)" fill-rule="evenodd"><path d="M-4.1 -2.44 C-6.48 -0.14, -13.58 7.26, -15.52 11.71 C-17.46 16.16, -16.16 18.69, -15.73 24.24 C-15.3 29.79, -14.34 39.18, -12.95 45.01 C-11.55 50.84, -11.24 55.95, -7.36 59.22 C-3.47 62.5, 1.57 63.44, 10.34 64.64 C19.11 65.84, 36.76 69.14, 45.27 66.42 C53.79 63.7, 57.53 53.98, 61.42 48.32 C65.32 42.66, 68.84 39.72, 68.64 32.45 C68.44 25.18, 63.9 10.67, 60.23 4.7 C56.56 -1.28, 53.12 -2.31, 46.63 -3.4 C40.13 -4.48, 28.35 -2.17, 21.27 -1.83 C14.19 -1.48, 7.81 -1.48, 4.16 -1.34" stroke="none" stroke-width="0" fill="#ffffff" fill-rule="evenodd"></path><path d="M0.54 2.56 C-1.89 5.41, -9.75 10.78, -12.51 14.39 C-15.28 18, -15.78 19.06, -16.06 24.24 C-16.33 29.43, -16.19 39.77, -14.18 45.51 C-12.17 51.24, -8.26 54.41, -3.99 58.68 C0.28 62.95, 3.74 69.7, 11.43 71.13 C19.13 72.55, 33.56 70.41, 42.2 67.22 C50.84 64.03, 58.82 57.98, 63.28 52 C67.73 46.01, 69.79 39.29, 68.94 31.3 C68.09 23.31, 62.66 9.58, 58.19 4.04 C53.72 -1.49, 48.87 -0.22, 42.11 -1.92 C35.36 -3.62, 24.39 -6.29, 17.66 -6.15 C10.94 -6.01, 4.73 -2.34, 1.76 -1.1 M-2.61 1.49 C-5.65 3.68, -12.4 5.69, -15.02 9.75 C-17.64 13.81, -18.41 20.79, -18.33 25.86 C-18.25 30.92, -16.49 34.4, -14.54 40.13 C-12.59 45.85, -11.37 55.18, -6.65 60.19 C-1.94 65.2, 5.61 69.53, 13.76 70.18 C21.91 70.83, 34.29 67.13, 42.23 64.11 C50.18 61.09, 57.57 58, 61.42 52.05 C65.27 46.1, 65.57 35.4, 65.31 28.42 C65.05 21.44, 63.63 16.12, 59.87 10.14 C56.1 4.17, 50.27 -4.44, 42.71 -7.44 C35.15 -10.44, 21.1 -8.49, 14.53 -7.86 C7.95 -7.22, 5.99 -5.21, 3.26 -3.64" stroke="#1e1e1e" stroke-width="2" fill="none"></path></g></g><mask></mask><g stroke-linecap="round"><g transform="translate(635.3283722936221 166.92955163419117) rotate(0 -33.26314315931427 18.375159208821003)" fill-rule="evenodd"><path d="M2.33 -0.98 C5.06 -0.93, 18.54 0.31, 18.54 -2.79 C18.53 -5.89, 11.15 -15.01, 2.3 -19.59 C-6.55 -24.17, -24.79 -29.48, -34.55 -30.28 C-44.32 -31.09, -50 -27.02, -56.29 -24.42 C-62.59 -21.83, -67.78 -18.37, -72.3 -14.73 C-76.82 -11.09, -84.78 -8.63, -83.44 -2.61 C-82.11 3.41, -71.24 17.93, -64.28 21.37 C-57.32 24.82, -50.96 17.56, -41.68 18.07 C-32.4 18.57, -15.07 22.69, -8.6 24.42 C-2.13 26.15, -4.79 25.32, -2.85 28.45 C-0.91 31.58, 4.72 39.79, 3.03 43.22 C1.34 46.64, -7.72 47.15, -12.98 49.03 C-18.23 50.91, -23.48 54.16, -28.5 54.51 C-33.52 54.87, -36.79 52.13, -43.1 51.16 C-49.4 50.2, -61.41 51.52, -66.33 48.71 C-71.25 45.9, -70 35.74, -72.62 34.28 C-75.25 32.82, -80.75 37.49, -82.09 39.96 C-83.43 42.43, -84.78 44.69, -80.67 49.1 C-76.56 53.51, -65.27 63.83, -57.45 66.41 C-49.63 69, -45.33 65.73, -33.75 64.6 C-22.18 63.47, 3.42 64.33, 12.02 59.62 C20.62 54.91, 18.98 42.67, 17.87 36.32 C16.76 29.97, 12.63 24.8, 5.37 21.52 C-1.88 18.24, -17.44 19.09, -25.67 16.65 C-33.9 14.21, -36.8 9, -44.01 6.88 C-51.22 4.76, -66.22 7.77, -68.91 3.93 C-71.6 0.1, -65.63 -12.38, -60.15 -16.13 C-54.67 -19.88, -43.1 -18.29, -36.03 -18.57 C-28.97 -18.86, -23.58 -20.46, -17.74 -17.85 C-11.9 -15.25, -4.13 -6.15, -0.99 -2.92" stroke="none" stroke-width="0" fill="#1e1e1e" fill-rule="evenodd"></path><path d="M-0.12 0.86 C2.86 0.36, 14.4 2.26, 15.45 -0.99 C16.51 -4.25, 14.03 -13.76, 6.21 -18.67 C-1.62 -23.58, -21.17 -29.15, -31.49 -30.45 C-41.81 -31.75, -48.21 -28.21, -55.71 -26.49 C-63.21 -24.77, -72.71 -24.86, -76.48 -20.13 C-80.25 -15.39, -80.72 -4.52, -78.35 1.93 C-75.97 8.37, -69.08 15.43, -62.24 18.54 C-55.41 21.64, -45.83 19.49, -37.34 20.56 C-28.85 21.64, -17.16 23.39, -11.29 25 C-5.42 26.61, -4.87 27.74, -2.13 30.24 C0.61 32.73, 5.98 36.02, 5.15 39.97 C4.32 43.92, -1.5 51.19, -7.11 53.94 C-12.72 56.69, -21.8 56.08, -28.49 56.47 C-35.17 56.86, -41.23 57.99, -47.21 56.31 C-53.2 54.62, -60.52 50, -64.38 46.36 C-68.25 42.72, -67.35 36.31, -70.4 34.46 C-73.44 32.61, -80.88 33.08, -82.67 35.25 C-84.47 37.43, -84.85 42.38, -81.15 47.5 C-77.44 52.62, -68.63 62.98, -60.46 65.96 C-52.28 68.93, -44.12 66.9, -32.09 65.36 C-20.05 63.82, 3.43 62.14, 11.75 56.71 C20.07 51.29, 19.38 38.84, 17.83 32.8 C16.28 26.77, 8.97 22.93, 2.45 20.51 C-4.07 18.09, -12.96 19.91, -21.29 18.3 C-29.63 16.68, -39.6 13.6, -47.56 10.8 C-55.52 7.99, -67.11 6.26, -69.07 1.46 C-71.03 -3.33, -64.07 -14.79, -59.31 -17.97 C-54.55 -21.14, -46.39 -17.28, -40.5 -17.59 C-34.61 -17.91, -30.84 -23.19, -23.96 -19.86 C-17.07 -16.54, -3.45 -1.09, 0.82 2.34 M-3.63 -1.14 C-0.71 -1.57, 12.41 4.88, 13.77 1.29 C15.14 -2.3, 11.97 -17.79, 4.56 -22.69 C-2.86 -27.59, -20.12 -27.64, -30.73 -28.1 C-41.34 -28.57, -51.97 -27.63, -59.1 -25.48 C-66.23 -23.34, -69.31 -19.31, -73.5 -15.23 C-77.68 -11.15, -85.68 -6.54, -84.22 -1.01 C-82.76 4.52, -72.04 14.72, -64.71 17.95 C-57.39 21.19, -48.19 17.27, -40.27 18.42 C-32.36 19.57, -23.47 22.51, -17.22 24.85 C-10.96 27.2, -6.11 28.95, -2.74 32.51 C0.63 36.07, 4.86 42.78, 3 46.22 C1.15 49.66, -8.56 51.31, -13.85 53.16 C-19.14 55.02, -23.32 56.84, -28.74 57.35 C-34.16 57.86, -39.55 57.56, -46.36 56.24 C-53.17 54.91, -65.04 52.58, -69.59 49.38 C-74.13 46.19, -71.15 39.43, -73.62 37.06 C-76.08 34.69, -82.79 33.56, -84.4 35.17 C-86.01 36.79, -87.39 42.24, -83.29 46.78 C-79.19 51.32, -68.04 59.66, -59.79 62.41 C-51.55 65.17, -45.96 63.46, -33.79 63.3 C-21.63 63.13, 4.52 65.58, 13.19 61.42 C21.86 57.26, 19.38 45.58, 18.23 38.32 C17.07 31.07, 13.56 22.32, 6.24 17.9 C-1.09 13.49, -17.21 12.91, -25.74 11.84 C-34.27 10.77, -38.24 13.46, -44.94 11.48 C-51.65 9.51, -64.01 4.34, -65.96 0.01 C-67.92 -4.32, -60.92 -10.83, -56.69 -14.47 C-52.45 -18.11, -46.47 -20.49, -40.55 -21.84 C-34.63 -23.2, -27.99 -26.1, -21.17 -22.58 C-14.35 -19.06, -3.53 -4, 0.39 -0.74" stroke="#1e1e1e" stroke-width="2" fill="none"></path></g></g><mask></mask><g stroke-linecap="round"><g transform="translate(674.5485004925144 112.43301806851213) rotate(0 8.904400948167677 58.697865148082684)" fill-rule="evenodd"><path d="M-0.9 -2.61 C2.41 -2.45, 16.18 -5.36, 18.31 -0.24 C20.44 4.87, 8.25 22.78, 11.88 28.08 C15.5 33.39, 35.32 29.36, 40.08 31.6 C44.83 33.84, 44.03 40.91, 40.42 41.54 C36.81 42.17, 22.6 26.39, 18.42 35.37 C14.23 44.35, 15.56 83.52, 15.31 95.44 C15.06 107.35, 14.45 104.69, 16.93 106.85 C19.41 109, 27.47 107.46, 30.19 108.36 C32.91 109.26, 31.6 110.59, 33.26 112.25 C34.91 113.92, 43.39 117.87, 40.12 118.35 C36.86 118.83, 20.52 116.26, 13.67 115.13 C6.82 114, 0.72 115.18, -0.97 111.58 C-2.66 107.99, 3.91 100.05, 3.53 93.56 C3.15 87.06, -2.68 78.15, -3.25 72.62 C-3.83 67.09, 0.15 65.04, 0.09 60.37 C0.04 55.7, -3.38 49.01, -3.56 44.6 C-3.75 40.18, 1.7 34.62, -1.01 33.88 C-3.72 33.14, -16.32 40.95, -19.81 40.15 C-23.31 39.35, -25.45 31.71, -21.98 29.07 C-18.51 26.44, -3.4 28.51, 1.01 24.34 C5.41 20.18, 4.98 6.88, 4.44 4.1" stroke="none" stroke-width="0" fill="#1e1e1e" fill-rule="evenodd"></path><path d="M-2.44 2.33 C0 2.91, 10.5 -1.41, 13.4 2.7 C16.3 6.81, 11.27 22.93, 14.97 26.98 C18.66 31.04, 31.83 25.07, 35.59 27.04 C39.34 29.01, 40.79 36.88, 37.49 38.78 C34.19 40.69, 19.69 29.48, 15.77 38.45 C11.85 47.42, 14.03 81.62, 13.95 92.59 C13.86 103.56, 13.18 101.21, 15.25 104.27 C17.32 107.33, 23.28 110.06, 26.37 110.95 C29.46 111.84, 32.45 108.18, 33.8 109.61 C35.16 111.04, 37.95 118.13, 34.49 119.55 C31.03 120.97, 18.58 119.58, 13.06 118.13 C7.53 116.69, 3.31 114.87, 1.35 110.88 C-0.61 106.89, 1.65 99.96, 1.29 94.2 C0.92 88.44, -0.32 81.83, -0.84 76.32 C-1.36 70.82, -2.14 66.48, -1.83 61.19 C-1.53 55.9, 1.22 49.01, 0.98 44.61 C0.74 40.21, 0.11 35.98, -3.25 34.8 C-6.61 33.61, -16.48 38.15, -19.19 37.52 C-21.9 36.89, -22.56 32.18, -19.5 31.01 C-16.43 29.84, -3.73 35.29, -0.8 30.48 C2.13 25.66, -2.38 6.79, -1.91 2.13 M1.44 1.12 C3.5 1.04, 8.39 -5.86, 10.52 -1.03 C12.65 3.79, 9.99 25.02, 14.22 30.05 C18.46 35.08, 32.54 27.52, 35.94 29.16 C39.34 30.8, 38.79 38.83, 34.62 39.87 C30.45 40.91, 13.98 27.09, 10.92 35.41 C7.86 43.73, 16.04 78.63, 16.26 89.79 C16.48 100.95, 11.18 99.22, 12.24 102.37 C13.3 105.51, 18.92 107.51, 22.62 108.68 C26.31 109.85, 32.56 108.41, 34.41 109.38 C36.26 110.35, 36.61 113.07, 33.75 114.51 C30.89 115.95, 22.62 119.06, 17.25 118.02 C11.87 116.98, 4.23 112.38, 1.48 108.27 C-1.28 104.16, 1.07 98.7, 0.71 93.37 C0.34 88.04, -0.5 81.23, -0.71 76.28 C-0.93 71.34, -0.52 68.69, -0.58 63.69 C-0.64 58.69, -1.36 51.11, -1.07 46.27 C-0.78 41.42, 3.39 36.14, 1.17 34.62 C-1.06 33.09, -11.13 38.24, -14.41 37.13 C-17.7 36.01, -20.42 29.26, -18.54 27.9 C-16.65 26.54, -5.79 32.52, -3.13 28.96 C-0.46 25.4, -3.55 9.99, -2.56 6.54" stroke="#1e1e1e" stroke-width="2" fill="none"></path></g></g><mask></mask><g stroke-linecap="round"><g transform="translate(817.8789999959718 155.68627414194816) rotate(0 -44.19874630732693 45.04593165290848)" fill-rule="evenodd"><path d="M-2.42 1.26 C-1.67 -0.34, -1.19 -10.4, 2.12 -13.3 C5.43 -16.21, 16.04 -28.54, 17.44 -16.17 C18.85 -3.8, 11.19 44.16, 10.55 60.92 C9.9 77.67, 16.58 77.34, 13.57 84.36 C10.56 91.38, 0.79 98.87, -7.5 103.03 C-15.8 107.19, -26.72 108.86, -36.2 109.33 C-45.68 109.81, -56.52 108.05, -64.38 105.89 C-72.25 103.73, -78.93 99.98, -83.4 96.36 C-87.87 92.75, -92.74 87.18, -91.22 84.19 C-89.7 81.21, -76.82 76.55, -74.26 78.43 C-71.71 80.31, -78.96 92.46, -75.9 95.49 C-72.83 98.52, -63.97 95.24, -55.87 96.6 C-47.78 97.97, -34.07 103.07, -27.33 103.67 C-20.6 104.28, -19.82 105, -15.48 100.22 C-11.14 95.44, -4.12 81.65, -1.3 74.97 C1.52 68.29, 5.26 60.39, 1.43 60.16 C-2.4 59.92, -12.95 72.15, -24.29 73.57 C-35.62 75, -57.15 71.13, -66.59 68.73 C-76.03 66.32, -75.91 64.41, -80.94 59.14 C-85.96 53.88, -93.26 45.02, -96.73 37.17 C-100.2 29.31, -102.62 18.92, -101.74 12.02 C-100.86 5.11, -96.82 -0.08, -91.43 -4.27 C-86.03 -8.45, -75.74 -11.42, -69.36 -13.11 C-62.99 -14.79, -60.53 -14.71, -53.18 -14.38 C-45.83 -14.06, -34.09 -13.15, -25.25 -11.15 C-16.41 -9.15, -4.76 -3.58, -0.13 -2.39" stroke="none" stroke-width="0" fill="#1e1e1e" fill-rule="evenodd"></path><path d="M-1.15 1.73 C-0.96 -0.9, -1.64 -13.48, 0.52 -16.47 C2.69 -19.47, 10.09 -28.1, 11.83 -16.23 C13.57 -4.35, 10.93 37.73, 10.98 54.78 C11.02 71.83, 14.6 78.32, 12.12 86.06 C9.63 93.8, 3.77 97.67, -3.94 101.22 C-11.66 104.76, -23.14 105.9, -34.17 107.34 C-45.21 108.77, -61 111.69, -70.16 109.84 C-79.31 107.98, -85.05 101.16, -89.1 96.23 C-93.16 91.29, -96.47 82.73, -94.48 80.23 C-92.48 77.73, -81.02 79.02, -77.12 81.24 C-73.22 83.46, -75.02 90.26, -71.08 93.53 C-67.15 96.81, -61.13 99.93, -53.49 100.9 C-45.85 101.86, -32.47 100.29, -25.23 99.34 C-17.98 98.4, -13.83 98.54, -10.01 95.24 C-6.19 91.93, -4.19 85.56, -2.3 79.51 C-0.41 73.46, 5.8 60.04, 1.33 58.93 C-3.13 57.82, -17.93 70.96, -29.09 72.83 C-40.25 74.71, -56.61 72.03, -65.61 70.17 C-74.61 68.31, -77.64 67.87, -83.12 61.66 C-88.6 55.46, -95.91 41.07, -98.46 32.94 C-101.02 24.82, -99.72 18.66, -98.43 12.92 C-97.15 7.17, -95.17 3.25, -90.76 -1.54 C-86.35 -6.33, -78.23 -13, -71.95 -15.83 C-65.67 -18.65, -60.66 -18.68, -53.06 -18.48 C-45.47 -18.29, -35.48 -17.78, -26.4 -14.66 C-17.31 -11.54, -2.66 -2.43, 1.45 0.22 M3.42 0.21 C3.44 -1.95, -1.8 -10.89, -0.83 -13.23 C0.14 -15.57, 7.36 -25.46, 9.22 -13.85 C11.07 -2.25, 10.31 39.54, 10.29 56.4 C10.26 73.26, 12.17 79.04, 9.07 87.32 C5.98 95.6, -0.06 101.92, -8.26 106.08 C-16.45 110.24, -30.67 111.68, -40.09 112.27 C-49.51 112.85, -57.16 111.52, -64.79 109.61 C-72.43 107.71, -81.05 104.67, -85.91 100.83 C-90.77 96.98, -95.59 89.37, -93.95 86.53 C-92.3 83.69, -79.49 82.74, -76.06 83.81 C-72.63 84.88, -77.44 90.21, -73.36 92.94 C-69.29 95.68, -59.42 99.42, -51.63 100.22 C-43.83 101.03, -33.87 98.95, -26.61 97.76 C-19.34 96.57, -12.25 96.97, -8.04 93.09 C-3.83 89.2, -2.65 81.12, -1.34 74.46 C-0.03 67.79, 4.99 54.44, -0.18 53.08 C-5.35 51.72, -22.27 63.35, -32.38 66.28 C-42.48 69.22, -52.66 72.08, -60.8 70.67 C-68.93 69.25, -74.57 63.27, -81.19 57.8 C-87.8 52.34, -97.79 44.64, -100.5 37.87 C-103.21 31.1, -99.03 24.09, -97.45 17.18 C-95.87 10.28, -95.74 1.06, -91.03 -3.58 C-86.33 -8.22, -74.78 -8.13, -69.2 -10.64 C-63.62 -13.16, -65 -17.93, -57.57 -18.68 C-50.14 -19.43, -33.72 -18.14, -24.62 -15.14 C-15.52 -12.15, -7.16 -2.91, -2.95 -0.69" stroke="#1e1e1e" stroke-width="2" fill="none"></path></g></g><mask></mask><g stroke-linecap="round"><g transform="translate(787.2486999662833 149.4714302895307) rotate(0 -10.64961971954449 32.279605333066286)" fill-rule="evenodd"><path d="M3.28 3.8 C0.12 2.63, -14.17 -5.58, -21.62 -4.42 C-29.06 -3.25, -36.01 6.49, -41.4 10.79 C-46.78 15.09, -52.72 16, -53.91 21.4 C-55.11 26.79, -51.35 36.52, -48.55 43.18 C-45.75 49.84, -42.45 57.41, -37.11 61.35 C-31.77 65.29, -22.98 66.6, -16.49 66.83 C-10 67.06, -3.89 64.44, 1.83 62.75 C7.55 61.06, 13.62 61, 17.82 56.67 C22.01 52.34, 25.19 42.86, 27 36.78 C28.81 30.7, 32.52 26.43, 28.68 20.19 C24.83 13.96, 8.27 3.01, 3.92 -0.62 C-0.44 -4.25, 3.11 -1.92, 2.53 -1.59" stroke="none" stroke-width="0" fill="#ffffff" fill-rule="evenodd"></path><path d="M-0.04 1.69 C-3.58 1.24, -14.02 -5.53, -21.6 -4.33 C-29.19 -3.13, -40.46 4.24, -45.56 8.91 C-50.66 13.59, -51.2 17.91, -52.21 23.73 C-53.22 29.55, -53.54 37.62, -51.62 43.84 C-49.7 50.06, -46.27 57.82, -40.7 61.06 C-35.13 64.3, -25.36 63.11, -18.19 63.29 C-11.01 63.47, -4.07 63.62, 2.36 62.13 C8.8 60.64, 15.95 58.29, 20.44 54.35 C24.93 50.42, 27.73 44.44, 29.29 38.5 C30.86 32.56, 33.56 24.66, 29.83 18.72 C26.1 12.78, 11.64 5.59, 6.91 2.85 C2.18 0.11, 2.73 3.04, 1.46 2.3 M-3.51 0.15 C-7.48 0.08, -16.93 -4.03, -24.36 -2.08 C-31.8 -0.14, -43.41 7.08, -48.12 11.8 C-52.83 16.51, -52.82 21.94, -52.61 26.21 C-52.41 30.47, -49.25 30.74, -46.88 37.39 C-44.51 44.03, -43.57 61.02, -38.37 66.05 C-33.17 71.08, -23.33 67.15, -15.69 67.56 C-8.06 67.97, 0.77 69.96, 7.45 68.51 C14.14 67.06, 20.48 64, 24.42 58.87 C28.36 53.74, 31.29 45.31, 31.1 37.73 C30.92 30.15, 26.55 19.34, 23.32 13.41 C20.1 7.49, 15.18 4.16, 11.75 2.19 C8.33 0.22, 5.21 2.45, 2.79 1.6" stroke="#1e1e1e" stroke-width="2" fill="none"></path></g></g><mask></mask><g stroke-linecap="round"><g transform="translate(846.7166216054179 141.0767992713765) rotate(0 28.717551573758783 44.458143302476685)" fill-rule="evenodd"><path d="M-2.92 0.68 C-0.74 0.38, 8.79 -3.46, 12.09 -1.75 C15.39 -0.03, 16.3 10.09, 16.9 10.95 C17.49 11.82, 13.32 5.55, 15.68 3.45 C18.04 1.35, 23.59 -0.77, 31.06 -1.65 C38.53 -2.53, 56.04 -4.32, 60.5 -1.83 C64.95 0.66, 61.13 10.75, 57.8 13.28 C54.46 15.8, 44.86 12.66, 40.47 13.33 C36.09 14, 35.58 15.63, 31.5 17.31 C27.42 19, 19.41 20.99, 15.99 23.42 C12.58 25.86, 11.38 25.36, 11.01 31.92 C10.65 38.48, 13.9 54.01, 13.8 62.77 C13.71 71.54, 12.92 80.48, 10.43 84.52 C7.95 88.55, -0.04 101.74, -1.1 86.97 C-2.16 72.2, 3.37 10.64, 4.08 -4.12" stroke="none" stroke-width="0" fill="#1e1e1e" fill-rule="evenodd"></path><path d="M2.36 0.17 C4.47 0.38, 12.21 -1.01, 13.95 1.73 C15.68 4.47, 11.42 16.26, 12.77 16.6 C14.12 16.93, 18.46 7.12, 22.04 3.73 C25.63 0.33, 28.1 -2.39, 34.27 -3.77 C40.45 -5.15, 55.04 -7, 59.09 -4.56 C63.14 -2.12, 61.54 8.44, 58.55 10.84 C55.56 13.23, 46.37 9.38, 41.14 9.81 C35.92 10.24, 30.57 10.95, 27.2 13.4 C23.82 15.85, 23.11 21.48, 20.88 24.51 C18.66 27.55, 15.15 25.57, 13.84 31.61 C12.54 37.65, 12.95 51.7, 13.04 60.76 C13.13 69.82, 16.75 81.48, 14.37 85.98 C11.99 90.48, 0.95 102.04, -1.25 87.75 C-3.45 73.46, 1.21 14.43, 1.18 0.26 M0.19 -2.21 C1.92 -2.87, 10.52 -4.81, 12.34 -2.48 C14.15 -0.15, 9.16 10.44, 11.08 11.77 C13 13.1, 20.53 8.12, 23.83 5.5 C27.14 2.88, 25.79 -3.16, 30.89 -3.94 C35.98 -4.73, 49.56 -1.31, 54.41 0.78 C59.26 2.88, 62.4 7.2, 59.99 8.64 C57.58 10.09, 44.72 9.2, 39.95 9.43 C35.19 9.67, 34.2 7.48, 31.4 10.06 C28.6 12.64, 25.96 20.97, 23.14 24.9 C20.32 28.84, 16.75 27.93, 14.49 33.67 C12.23 39.42, 9.47 50.95, 9.57 59.38 C9.67 67.81, 17.3 79.58, 15.09 84.27 C12.87 88.97, -1.65 101.75, -3.73 87.55 C-5.81 73.35, 1.93 13.93, 2.6 -0.92" stroke="#1e1e1e" stroke-width="2" fill="none"></path></g></g><mask></mask><g stroke-linecap="round"><g transform="translate(918.449795438913 187.4776501106221) rotate(0 45.10176658187015 -2.2340443522663236)" fill-rule="evenodd"><path d="M-1.57 -2.78 C14.2 -2.38, 79.71 6.33, 95.03 2.52 C110.35 -1.29, 94.51 -18.25, 90.35 -25.64 C86.2 -33.03, 79.09 -37.63, 70.11 -41.81 C61.13 -45.99, 46.6 -50.29, 36.48 -50.71 C26.35 -51.13, 16.31 -48.45, 9.36 -44.33 C2.4 -40.21, -1.58 -33.84, -5.26 -25.99 C-8.94 -18.14, -12.49 -5.48, -12.74 2.76 C-12.99 10.99, -11.98 17.44, -6.78 23.42 C-1.59 29.41, 8.96 35.35, 18.43 38.66 C27.9 41.98, 40.96 43.08, 50.02 43.32 C59.08 43.56, 66.72 42.75, 72.78 40.11 C78.83 37.47, 82.56 31.73, 86.36 27.48 C90.16 23.23, 97.01 16.38, 95.57 14.6 C94.12 12.83, 82.15 14.46, 77.67 16.82 C73.2 19.18, 73.74 26.11, 68.72 28.78 C63.71 31.44, 55.63 31.93, 47.59 32.79 C39.55 33.65, 28.12 36.37, 20.46 33.94 C12.81 31.51, 4.68 24.37, 1.66 18.22 C-1.35 12.06, 2.16 0.64, 2.35 -2.99" stroke="none" stroke-width="0" fill="#1e1e1e" fill-rule="evenodd"></path><path d="M-2.64 -2.04 C13.03 -1.22, 79.17 6.65, 94.62 2.18 C110.06 -2.29, 95.18 -21.28, 90.04 -28.86 C84.89 -36.43, 72.83 -40.25, 63.75 -43.27 C54.67 -46.3, 44.58 -46.73, 35.56 -47 C26.54 -47.28, 17.26 -48.98, 9.64 -44.91 C2.01 -40.83, -6.15 -30.14, -10.2 -22.53 C-14.24 -14.92, -15.92 -7.4, -14.65 0.76 C-13.37 8.92, -8.27 19.49, -2.57 26.45 C3.13 33.4, 11.1 39.75, 19.56 42.47 C28.01 45.19, 39.47 43.33, 48.18 42.77 C56.89 42.2, 65.23 41.53, 71.83 39.07 C78.43 36.61, 83.49 32.16, 87.78 27.98 C92.07 23.8, 99.38 16.11, 97.56 13.99 C95.73 11.87, 81.33 13.34, 76.85 15.26 C72.37 17.18, 75.95 22.29, 70.69 25.52 C65.43 28.74, 54.16 32.94, 45.31 34.58 C36.45 36.23, 25.04 38.55, 17.58 35.38 C10.12 32.21, 3.84 21.37, 0.55 15.55 C-2.74 9.74, -2.04 3.15, -2.16 0.49 M1.12 3.02 C17.66 3.32, 85.56 3.08, 100.1 -1.65 C114.64 -6.38, 94.52 -17.53, 88.36 -25.35 C82.2 -33.17, 71.18 -45.3, 63.13 -48.56 C55.07 -51.82, 48.37 -46.41, 40.02 -44.91 C31.67 -43.41, 21.29 -42.86, 13.03 -39.54 C4.76 -36.22, -5.89 -31.52, -9.58 -25 C-13.28 -18.49, -9.92 -8.42, -9.16 -0.45 C-8.4 7.53, -10.27 15.83, -5.05 22.83 C0.17 29.84, 13 37.9, 22.18 41.58 C31.36 45.25, 41.07 45.44, 50.03 44.89 C59 44.35, 69.47 41.28, 75.96 38.31 C82.45 35.34, 85.43 31.16, 89 27.07 C92.57 22.98, 99.5 15.74, 97.39 13.78 C95.27 11.81, 80.25 13.04, 76.32 15.28 C72.39 17.52, 78.25 23.72, 73.79 27.21 C69.33 30.69, 58.14 35.88, 49.57 36.2 C41 36.51, 29.72 32.48, 22.38 29.11 C15.04 25.75, 9.63 21.45, 5.53 16.02 C1.44 10.59, -0.79 -0.2, -2.19 -3.45" stroke="#1e1e1e" stroke-width="2" fill="none"></path></g></g><mask></mask><g stroke-linecap="round"><g transform="translate(917.9481724801776 178.44828376786518) rotate(0 43.82079507259368 -15.899985556887117)" fill-rule="evenodd"><path d="M2.8 2.63 C16.77 2.79, 70.95 5.96, 82.69 2.21 C94.43 -1.54, 78.17 -14.45, 73.24 -19.87 C68.31 -25.3, 59.54 -29.12, 53.12 -30.37 C46.71 -31.61, 41.4 -28.23, 34.75 -27.34 C28.09 -26.45, 19.28 -29.16, 13.2 -25.02 C7.13 -20.88, 0.22 -6.38, -1.73 -2.52" stroke="none" stroke-width="0" fill="#ffffff" fill-rule="evenodd"></path><path d="M1.13 -1.06 C15.51 -1.38, 73.22 0.12, 85.33 -3.02 C97.44 -6.16, 78.72 -15.47, 73.8 -19.9 C68.87 -24.34, 62.07 -27.41, 55.79 -29.63 C49.51 -31.84, 42.9 -34.06, 36.13 -33.18 C29.37 -32.3, 21.19 -30.19, 15.2 -24.34 C9.21 -18.49, 2.28 -2.39, 0.19 1.9 M-1.7 -4.1 C12.59 -4.03, 71.85 1.57, 84.34 -0.49 C96.84 -2.54, 77.69 -12.1, 73.24 -16.43 C68.8 -20.77, 64.33 -23.64, 57.66 -26.49 C50.98 -29.34, 41.07 -34.77, 33.21 -33.52 C25.35 -32.27, 15.75 -24.52, 10.52 -18.98 C5.28 -13.43, 3.28 -3.63, 1.81 -0.24" stroke="#1e1e1e" stroke-width="2" fill="none"></path></g></g><mask></mask><g stroke-linecap="round"><g transform="translate(1138.4668518003741 131.66750405239105) rotate(0 -45.12277687907476 29.069811756423377)" fill-rule="evenodd"><path d="M2.65 -2.11 C5.68 -1.71, 19.86 6.07, 20.83 3.59 C21.79 1.11, 13.22 -10.63, 8.44 -16.99 C3.66 -23.35, -1.35 -31, -7.83 -34.55 C-14.31 -38.11, -21.57 -36.97, -30.44 -38.33 C-39.31 -39.7, -51.12 -43.82, -61.04 -42.75 C-70.96 -41.68, -82.9 -36.36, -89.96 -31.93 C-97.02 -27.5, -100.98 -21.07, -103.42 -16.17 C-105.86 -11.28, -104.92 -8.33, -104.59 -2.57 C-104.26 3.18, -105.95 13.17, -101.44 18.35 C-96.93 23.53, -85.72 26.29, -77.55 28.5 C-69.38 30.7, -61.61 30.51, -52.42 31.59 C-43.22 32.68, -31.24 33.28, -22.39 34.98 C-13.55 36.68, -3.08 37.44, 0.64 41.8 C4.36 46.16, -0.83 55.58, -0.05 61.14 C0.73 66.7, 9.57 70.37, 5.31 75.14 C1.05 79.92, -15.7 86.96, -25.61 89.8 C-35.51 92.65, -45.83 93.63, -54.14 92.19 C-62.45 90.75, -68.83 84.12, -75.47 81.17 C-82.12 78.23, -90.75 78.57, -94 74.52 C-97.24 70.48, -91.92 60.3, -94.93 56.88 C-97.95 53.47, -108.8 52.43, -112.07 54.03 C-115.34 55.63, -118.41 60.3, -114.54 66.47 C-110.67 72.65, -97.22 86.13, -88.86 91.07 C-80.49 96.01, -72.96 95.25, -64.35 96.09 C-55.74 96.93, -47.36 95.18, -37.21 96.11 C-27.05 97.03, -11.89 104.71, -3.42 101.63 C5.06 98.56, 9.45 84.82, 13.64 77.65 C17.82 70.48, 21.78 65.26, 21.69 58.61 C21.6 51.95, 17.6 43.48, 13.12 37.73 C8.63 31.98, 1.42 26.96, -5.22 24.12 C-11.87 21.28, -17.16 22.63, -26.78 20.69 C-36.4 18.75, -53.4 15.3, -62.96 12.46 C-72.53 9.61, -79.28 7.69, -84.17 3.61 C-89.06 -0.46, -93.31 -8.37, -92.3 -11.99 C-91.29 -15.61, -84.24 -15.3, -78.11 -18.11 C-71.97 -20.92, -62.56 -26.36, -55.49 -28.85 C-48.42 -31.34, -43.23 -33.84, -35.7 -33.05 C-28.16 -32.25, -16.87 -30.22, -10.29 -24.08 C-3.71 -17.95, 1.82 -0.37, 3.8 3.75" stroke="none" stroke-width="0" fill="#228be6" fill-rule="evenodd"></path><path d="M-1.51 -1.62 C1.85 -1.44, 15.76 3.22, 18.4 0.32 C21.04 -2.58, 18.7 -13.02, 14.36 -19.02 C10.01 -25.03, -0.27 -32.3, -7.65 -35.71 C-15.04 -39.12, -20.58 -38.82, -29.97 -39.48 C-39.36 -40.14, -54.73 -39.87, -64 -39.67 C-73.27 -39.46, -79.12 -41.73, -85.6 -38.24 C-92.08 -34.75, -99.82 -25.17, -102.86 -18.75 C-105.91 -12.32, -104.02 -5.95, -103.86 0.3 C-103.69 6.55, -106.41 14.69, -101.87 18.76 C-97.34 22.83, -85.15 23.12, -76.63 24.72 C-68.11 26.32, -59.39 26.3, -50.75 28.36 C-42.12 30.42, -33.21 34.25, -24.82 37.08 C-16.43 39.92, -5.44 41.65, -0.44 45.37 C4.57 49.09, 4.3 54.58, 5.21 59.4 C6.12 64.23, 9.65 69.6, 5.03 74.33 C0.41 79.05, -13.17 85.21, -22.5 87.76 C-31.83 90.3, -42.25 90.5, -50.94 89.61 C-59.63 88.71, -68.04 86.02, -74.63 82.4 C-81.22 78.77, -87.76 72.53, -90.49 67.85 C-93.22 63.17, -87.92 57.17, -91.01 54.33 C-94.1 51.5, -105.61 48.24, -109.04 50.83 C-112.47 53.42, -114.53 63.32, -111.6 69.86 C-108.68 76.4, -99.51 85.34, -91.48 90.05 C-83.44 94.76, -72.58 96.43, -63.38 98.11 C-54.18 99.79, -45.45 100, -36.29 100.16 C-27.13 100.32, -16.95 102.02, -8.42 99.08 C0.12 96.13, 9.79 89.01, 14.94 82.46 C20.08 75.92, 21.94 66.49, 22.46 59.81 C22.98 53.13, 23.44 47.97, 18.07 42.4 C12.69 36.83, -1.85 29.69, -9.79 26.4 C-17.74 23.1, -20.94 24.08, -29.61 22.62 C-38.29 21.16, -52.26 20.51, -61.85 17.62 C-71.44 14.73, -82.41 9.49, -87.15 5.27 C-91.88 1.06, -91.15 -3.07, -90.27 -7.67 C-89.4 -12.27, -87.77 -18.43, -81.9 -22.32 C-76.02 -26.21, -63.17 -30.23, -55.02 -31 C-46.86 -31.78, -40.15 -28.03, -32.99 -26.98 C-25.82 -25.93, -17.28 -29, -12.04 -24.72 C-6.8 -20.43, -3.66 -5.61, -1.54 -1.28 M2.87 3.68 C6.14 4.43, 15.12 7.35, 16.9 4.12 C18.68 0.89, 17.35 -9.5, 13.53 -15.69 C9.71 -21.88, 1.69 -29.22, -6.03 -33.01 C-13.76 -36.79, -23.51 -36.81, -32.83 -38.4 C-42.15 -40, -53.5 -43.25, -61.97 -42.56 C-70.44 -41.86, -76.37 -38.17, -83.64 -34.22 C-90.92 -30.27, -101.75 -24.06, -105.62 -18.85 C-109.5 -13.64, -107.63 -9.29, -106.89 -2.96 C-106.15 3.37, -106.43 14.31, -101.16 19.11 C-95.89 23.92, -84.33 23.3, -75.28 25.86 C-66.23 28.43, -55.24 32.92, -46.87 34.52 C-38.51 36.12, -33.82 33.77, -25.09 35.47 C-16.37 37.17, 0.22 41.01, 5.49 44.72 C10.76 48.43, 7.41 52.32, 6.54 57.71 C5.67 63.1, 5.5 71.79, 0.27 77.06 C-4.96 82.32, -17.16 86.89, -24.85 89.28 C-32.55 91.67, -38.38 92.52, -45.88 91.4 C-53.38 90.29, -62.56 86.04, -69.85 82.61 C-77.14 79.18, -85.86 76.01, -89.61 70.82 C-93.36 65.63, -89.38 54.1, -92.34 51.49 C-95.29 48.88, -104.01 52.35, -107.34 55.15 C-110.68 57.94, -114.22 62.61, -112.35 68.25 C-110.47 73.88, -103.49 83.95, -96.09 88.97 C-88.69 93.98, -77.14 96.55, -67.96 98.33 C-58.77 100.11, -51.35 99.57, -40.96 99.64 C-30.58 99.71, -15.56 102.04, -5.64 98.75 C4.28 95.46, 13.91 85.75, 18.55 79.91 C23.2 74.06, 22.98 70.3, 22.23 63.68 C21.49 57.06, 18.37 45.82, 14.08 40.17 C9.8 34.52, 3.73 32.02, -3.46 29.76 C-10.65 27.49, -18.77 28.72, -29.07 26.58 C-39.37 24.44, -56.27 20.12, -65.26 16.91 C-74.25 13.7, -79.33 11.65, -83.02 7.33 C-86.7 3, -87.59 -4.45, -87.37 -9.05 C-87.14 -13.65, -87.69 -17.39, -81.68 -20.27 C-75.66 -23.15, -59.67 -25.13, -51.28 -26.33 C-42.89 -27.52, -37.63 -27.91, -31.33 -27.45 C-25.02 -26.99, -19.13 -27.82, -13.43 -23.57 C-7.72 -19.33, 0.31 -6.48, 2.89 -1.98" stroke="#1971c2" stroke-width="2" fill="none"></path></g></g><mask></mask><g stroke-linecap="round"><g transform="translate(1321.1372509127805 240.19346280343103) rotate(0 -71.64693555867507 -73.65739201124191)" fill-rule="evenodd"><path d="M-2.52 3.5 C-1.12 3.1, 8.97 0.05, 7.18 -4.56 C5.39 -9.16, -13.55 -16.56, -13.25 -24.13 C-12.96 -31.71, 4.97 -39.79, 8.97 -50 C12.96 -60.22, 11.96 -73.99, 10.72 -85.43 C9.48 -96.87, 5.54 -110.26, 1.53 -118.65 C-2.49 -127.04, -2.96 -130.94, -13.37 -135.76 C-23.78 -140.57, -48.8 -145.85, -60.92 -147.55 C-73.04 -149.25, -75.89 -146.72, -86.07 -145.97 C-96.26 -145.22, -113.24 -146.58, -122.04 -143.06 C-130.83 -139.53, -133.58 -131.6, -138.86 -124.8 C-144.13 -118, -151.29 -110.81, -153.66 -102.27 C-156.02 -93.73, -153.77 -82.95, -153.04 -73.56 C-152.31 -64.17, -152.23 -53.71, -149.28 -45.91 C-146.33 -38.12, -142 -32, -135.36 -26.79 C-128.71 -21.58, -117.36 -18.18, -109.42 -14.67 C-101.48 -11.17, -95.54 -6.1, -87.72 -5.76 C-79.9 -5.41, -71.17 -11.22, -62.52 -12.62 C-53.87 -14.02, -41.87 -14.05, -35.83 -14.16 C-29.79 -14.27, -31.95 -15.35, -26.29 -13.29 C-20.63 -11.24, -6.19 -4.13, -1.86 -1.83" stroke="none" stroke-width="0" fill="#228be6" fill-rule="evenodd"></path><path d="M-2.76 -1.22 C-0.97 -2.47, 11.09 -2.34, 9.16 -6.31 C7.22 -10.29, -14.03 -18.5, -14.39 -25.08 C-14.74 -31.66, 2.21 -36.13, 7.04 -45.78 C11.87 -55.44, 15.54 -71.05, 14.57 -82.99 C13.61 -94.94, 6.16 -108.63, 1.25 -117.47 C-3.66 -126.3, -4.42 -130.51, -14.9 -135.99 C-25.37 -141.47, -49.93 -148.31, -61.59 -150.33 C-73.24 -152.34, -75.14 -149.6, -84.82 -148.1 C-94.5 -146.6, -110.38 -146.26, -119.66 -141.35 C-128.95 -136.43, -134.96 -125.19, -140.55 -118.61 C-146.14 -112.02, -150.49 -109.02, -153.21 -101.84 C-155.93 -94.65, -157.23 -83.95, -156.87 -75.49 C-156.51 -67.04, -154.12 -58.38, -151.03 -51.11 C-147.95 -43.83, -144.53 -37.93, -138.37 -31.84 C-132.21 -25.76, -123.2 -17.93, -114.09 -14.58 C-104.97 -11.23, -93 -12.35, -83.68 -11.74 C-74.37 -11.14, -66.88 -10.54, -58.18 -10.94 C-49.49 -11.34, -37.5 -13.33, -31.5 -14.15 C-25.5 -14.96, -27.18 -18.23, -22.17 -15.82 C-17.17 -13.4, -4.74 -2.34, -1.47 0.36 M0.93 4.28 C2.46 2.06, 8.3 -6.4, 6.7 -10.86 C5.09 -15.31, -8.91 -17.13, -8.71 -22.44 C-8.51 -27.75, 4.36 -31.54, 7.87 -42.71 C11.39 -53.89, 12.88 -76.73, 12.36 -89.51 C11.84 -102.3, 9.28 -112.37, 4.78 -119.42 C0.27 -126.47, -3.37 -127.72, -14.65 -131.8 C-25.92 -135.89, -50.74 -140.62, -62.87 -143.92 C-75 -147.22, -78.33 -151.82, -87.41 -151.59 C-96.5 -151.36, -108.65 -147.15, -117.41 -142.54 C-126.17 -137.93, -133.52 -131.73, -139.97 -123.91 C-146.43 -116.08, -153.22 -103.38, -156.13 -95.6 C-159.04 -87.81, -157.84 -84.4, -157.41 -77.19 C-156.98 -69.99, -156.71 -59.6, -153.54 -52.36 C-150.36 -45.12, -145.32 -39.27, -138.38 -33.73 C-131.44 -28.19, -120.55 -22.83, -111.9 -19.09 C-103.25 -15.36, -95.09 -12.67, -86.47 -11.32 C-77.85 -9.97, -68.81 -10.46, -60.18 -10.98 C-51.55 -11.49, -41.33 -13.03, -34.67 -14.4 C-28.02 -15.77, -26.66 -21.22, -20.24 -19.19 C-13.83 -17.17, 0.97 -5, 3.81 -2.25" stroke="#1971c2" stroke-width="2" fill="none"></path></g></g><mask></mask><g stroke-linecap="round"><g transform="translate(1223.9721318985594 106.85304131270334) rotate(0 24.05013856095775 52.67533477443661)" fill-rule="evenodd"><path d="M-3.74 3.63 C-7.19 4.48, -17.74 3.18, -22.79 8.48 C-27.84 13.78, -31.49 27.21, -34.06 35.45 C-36.63 43.68, -38.13 50.05, -38.22 57.87 C-38.31 65.69, -38 75.5, -34.61 82.38 C-31.22 89.26, -25.37 95.41, -17.9 99.14 C-10.43 102.87, -0.91 103.11, 10.21 104.74 C21.33 106.36, 38.52 109.78, 48.83 108.9 C59.14 108.02, 65.28 103.9, 72.07 99.44 C78.85 94.97, 85.51 90.3, 89.54 82.13 C93.56 73.96, 98.16 61.63, 96.22 50.42 C94.28 39.22, 84.13 22.59, 77.89 14.89 C71.64 7.19, 66.51 7.08, 58.73 4.2 C50.96 1.33, 40.96 -2.27, 31.25 -2.38 C21.53 -2.49, 6.11 3.78, 0.44 3.55" stroke="none" stroke-width="0" fill="#ffffff" fill-rule="evenodd"></path><path d="M-2.26 1.67 C-5.28 3.46, -13.93 5.22, -20.15 10.8 C-26.38 16.38, -35.65 26.95, -39.62 35.14 C-43.59 43.32, -45.16 51.61, -43.97 59.9 C-42.79 68.18, -37.36 77.79, -32.53 84.83 C-27.69 91.88, -22.13 98.35, -14.97 102.16 C-7.82 105.96, 0.08 106.13, 10.42 107.67 C20.77 109.21, 36.17 113.05, 47.11 111.38 C58.06 109.72, 68.92 102.86, 76.07 97.67 C83.23 92.48, 87.41 88.37, 90.04 80.25 C92.67 72.13, 93.37 59.72, 91.85 48.94 C90.34 38.17, 86.09 22.9, 80.94 15.58 C75.8 8.25, 69.15 8.68, 60.98 5 C52.81 1.32, 41.82 -5.74, 31.93 -6.49 C22.04 -7.24, 7.11 -0.35, 1.66 0.51 M1.7 0.11 C-1.53 1.04, -16.67 1.45, -22.62 6.46 C-28.57 11.47, -30.36 20.86, -34.01 30.18 C-37.67 39.5, -44.35 54.36, -44.54 62.4 C-44.73 70.43, -39.38 72.03, -35.15 78.37 C-30.92 84.72, -25.81 94.78, -19.16 100.47 C-12.51 106.15, -6 110.96, 4.74 112.5 C15.48 114.04, 33.84 111.39, 45.28 109.7 C56.71 108, 66.76 106.19, 73.34 102.34 C79.91 98.49, 81.67 96.34, 84.7 86.6 C87.73 76.85, 92.67 55.99, 91.51 43.88 C90.35 31.77, 82.64 20.54, 77.72 13.94 C72.81 7.35, 69.92 7.89, 62.01 4.31 C54.09 0.73, 40.02 -6.74, 30.24 -7.54 C20.46 -8.35, 8.16 -1.94, 3.34 -0.54" stroke="#1971c2" stroke-width="2" fill="none"></path></g></g><mask></mask><g stroke-linecap="round"><g transform="translate(1344.03230874972 94.55039605622244) rotate(0 54.04100321027386 66.21051548253797)" fill-rule="evenodd"><path d="M0.28 0.27 C2.44 0.48, 12.53 -21.45, 15.23 -1.35 C17.93 18.75, 0.69 100.7, 16.49 120.86 C32.28 141.01, 95.16 116.61, 110 119.57 C124.84 122.53, 123.97 135.49, 105.53 138.62 C87.08 141.74, 16.6 144.57, -0.7 138.3 C-18 132.02, 1.87 124.6, 1.74 100.96 C1.6 77.32, -0.71 13.82, -1.51 -3.55" stroke="none" stroke-width="0" fill="#228be6" fill-rule="evenodd"></path><path d="M1.14 0.12 C3.98 0.17, 12.98 -18.79, 15.23 1.86 C17.47 22.51, -0.26 104.12, 14.61 124.02 C29.48 143.93, 89.27 119.17, 104.46 121.27 C119.66 123.38, 122.55 133.23, 105.79 136.66 C89.03 140.08, 21.01 147.83, 3.9 141.82 C-13.22 135.81, 4.2 124.68, 3.1 100.59 C2.01 76.5, -2.02 14.25, -2.68 -2.73 M-1.69 -2.28 C2.14 -3.2, 16.55 -22.72, 20.17 -2.43 C23.79 17.86, 6.01 98.58, 20.03 119.46 C34.05 140.35, 90.56 119.87, 104.28 122.89 C118 125.91, 119.83 134.57, 102.37 137.56 C84.9 140.55, 17.02 147.46, -0.51 140.84 C-18.04 134.21, -3.35 121.91, -2.81 97.82 C-2.26 73.73, 3.03 13.26, 2.74 -3.71" stroke="#1971c2" stroke-width="2" fill="none"></path></g></g><mask></mask><g stroke-linecap="round"><g transform="translate(87.40317684595402 84.27698334058607) rotate(0 62.99275371011254 56.45089836875127)" fill-rule="evenodd"><path d="M1.33 -0.97 C2.23 -3.5, 1.01 -9.87, 3.01 -16.24 C5.01 -22.61, 11.03 -34.14, 13.33 -39.18 C15.63 -44.23, 13.62 -43.29, 16.79 -46.54 C19.96 -49.78, 26.51 -55.64, 32.35 -58.66 C38.19 -61.68, 46.28 -63.68, 51.82 -64.66 C57.36 -65.63, 61.12 -65.48, 65.58 -64.5 C70.04 -63.53, 74.91 -61.11, 78.57 -58.82 C82.23 -56.53, 84.15 -54.16, 87.56 -50.74 C90.96 -47.32, 95.17 -41.51, 98.99 -38.32 C102.8 -35.12, 107.47 -34.29, 110.44 -31.56 C113.42 -28.84, 114.08 -26.48, 116.85 -21.98 C119.63 -17.47, 128.6 -7.66, 127.1 -4.54 C125.61 -1.41, 112.55 -2.66, 107.89 -3.21 C103.22 -3.76, 101.98 -8.74, 99.11 -7.81 C96.23 -6.88, 90.84 -1.48, 90.64 2.38 C90.45 6.23, 96.5 8.04, 97.95 15.32 C99.4 22.6, 95.57 34.86, 99.33 46.04 C103.1 57.22, 118.39 75.42, 120.54 82.41 C122.68 89.39, 113.99 84.81, 112.19 87.96 C110.4 91.12, 109.73 94.85, 109.78 101.36 C109.82 107.86, 112.69 117.79, 112.48 127 C112.27 136.2, 112.52 148.18, 108.51 156.6 C104.49 165.01, 96.56 174.76, 88.39 177.5 C80.21 180.23, 66.14 177.14, 59.45 173 C52.77 168.86, 50.08 159.93, 48.3 152.68 C46.53 145.43, 48.21 136.66, 48.81 129.5 C49.4 122.34, 51.95 116.72, 51.88 109.74 C51.81 102.75, 49.09 91.22, 48.38 87.59 C47.67 83.96, 49.54 89.3, 47.64 87.94 C45.73 86.57, 38.84 82.62, 36.94 79.38 C35.05 76.15, 34.31 72.59, 36.26 68.54 C38.21 64.48, 47.14 63.28, 48.64 55.05 C50.14 46.83, 46.16 27.31, 45.24 19.18 C44.31 11.05, 45.21 10.12, 43.08 6.3 C40.96 2.48, 35.82 -0.83, 32.51 -3.75 C29.19 -6.66, 27.66 -12.27, 23.21 -11.22 C18.76 -10.16, 8.99 0.86, 5.82 2.57" stroke="none" stroke-width="0" fill="#228be6" fill-rule="evenodd"></path><path d="M-1.69 2.12 C-1.18 -0.96, 1.27 -10.52, 3.5 -17.1 C5.72 -23.68, 9.34 -32.08, 11.66 -37.36 C13.98 -42.64, 13.61 -45.04, 17.42 -48.8 C21.23 -52.56, 29.5 -57.26, 34.52 -59.91 C39.55 -62.57, 42.64 -64.68, 47.56 -64.71 C52.47 -64.74, 58.83 -61.19, 64.01 -60.08 C69.19 -58.98, 74.37 -58.94, 78.62 -58.09 C82.87 -57.24, 85.64 -57.8, 89.5 -55 C93.36 -52.2, 97.87 -45.35, 101.78 -41.3 C105.7 -37.25, 109.53 -34.26, 112.98 -30.7 C116.42 -27.14, 120.21 -23.89, 122.44 -19.95 C124.67 -16.01, 127.85 -9.2, 126.36 -7.08 C124.87 -4.95, 117.74 -7.64, 113.49 -7.21 C109.25 -6.79, 104.48 -6.82, 100.88 -4.54 C97.27 -2.25, 93.34 2.8, 91.85 6.51 C90.36 10.21, 89.76 10.8, 91.94 17.69 C94.12 24.59, 99.37 37.39, 104.92 47.88 C110.48 58.38, 123.19 74.38, 125.26 80.67 C127.32 86.96, 119.85 82.78, 117.32 85.63 C114.79 88.47, 110.72 90.93, 110.09 97.75 C109.45 104.58, 114.29 116.6, 113.51 126.59 C112.73 136.57, 109.79 149.28, 105.41 157.68 C101.03 166.07, 94.78 174.75, 87.22 176.96 C79.67 179.17, 66.2 175.44, 60.07 170.95 C53.93 166.46, 52.07 157.72, 50.4 150.01 C48.73 142.3, 50.13 132.32, 50.06 124.7 C49.99 117.08, 50.07 110.08, 49.96 104.29 C49.85 98.49, 50.06 93.59, 49.39 89.93 C48.73 86.28, 48.94 83.35, 45.96 82.36 C42.97 81.38, 32.9 85.93, 31.48 84 C30.06 82.07, 35.38 76.35, 37.42 70.77 C39.47 65.2, 42.46 59.33, 43.74 50.56 C45.02 41.79, 45.26 25.8, 45.1 18.17 C44.94 10.53, 44.75 9.02, 42.77 4.76 C40.8 0.49, 37.42 -5.51, 33.26 -7.41 C29.09 -9.31, 22.99 -7.63, 17.8 -6.63 C12.61 -5.63, 4.53 -2.47, 2.11 -1.41 M2.58 0.8 C2.72 -3.16, 0.17 -14.89, 1.53 -20.88 C2.88 -26.87, 8.14 -30.89, 10.73 -35.13 C13.31 -39.38, 12.33 -42.53, 17.03 -46.36 C21.74 -50.19, 33.38 -55.92, 38.95 -58.1 C44.53 -60.28, 46.07 -58.64, 50.47 -59.43 C54.86 -60.21, 60.89 -62.82, 65.31 -62.79 C69.73 -62.75, 73.49 -61.25, 76.98 -59.21 C80.48 -57.17, 81.79 -53.41, 86.29 -50.55 C90.8 -47.69, 99.54 -45.58, 104 -42.04 C108.46 -38.51, 110.34 -32.98, 113.04 -29.32 C115.74 -25.65, 117.79 -23.57, 120.21 -20.04 C122.62 -16.51, 128.7 -10.1, 127.53 -8.14 C126.37 -6.17, 117.6 -8.63, 113.21 -8.24 C108.83 -7.85, 104.62 -7.48, 101.24 -5.79 C97.85 -4.1, 93.65 -2.19, 92.89 1.91 C92.13 6.01, 94.98 10.98, 96.67 18.8 C98.36 26.61, 98.67 38.49, 103.02 48.83 C107.36 59.16, 120 75.23, 122.74 80.81 C125.48 86.38, 120.71 79.98, 119.48 82.27 C118.26 84.56, 117.48 87.73, 115.37 94.56 C113.27 101.39, 108.54 113.13, 106.86 123.25 C105.18 133.36, 109.21 146.51, 105.29 155.25 C101.37 163.98, 91.46 172.79, 83.34 175.65 C75.21 178.51, 61.5 176.85, 56.56 172.42 C51.62 167.98, 54.14 157.25, 53.67 149.02 C53.21 140.8, 53.87 129.96, 53.79 123.05 C53.7 116.15, 53.98 112.69, 53.16 107.61 C52.33 102.53, 50.72 96, 48.82 92.57 C46.92 89.15, 44.97 89.04, 41.76 87.06 C38.54 85.08, 30.33 83.96, 29.51 80.67 C28.69 77.38, 33.97 72.66, 36.85 67.32 C39.73 61.98, 44.77 56.34, 46.78 48.63 C48.8 40.91, 49.16 28.5, 48.94 21.01 C48.73 13.52, 48.12 8.08, 45.5 3.7 C42.87 -0.68, 37.23 -3.18, 33.18 -5.28 C29.12 -7.37, 26.04 -9.16, 21.17 -8.87 C16.29 -8.57, 7.05 -5.18, 3.91 -3.5" stroke="#1971c2" stroke-width="2" fill="none"></path></g></g><mask></mask><g stroke-linecap="round"><g transform="translate(215.87108222417555 171.64161305979144) rotate(0 12.415715403723652 6.610352577892712)" fill-rule="evenodd"><path d="M-0.38 0.77 C-1.55 1.02, -5.05 -0.25, -6.93 1.83 C-8.81 3.91, -13.82 11.34, -11.67 13.27 C-9.51 15.19, 0.84 14.03, 5.98 13.4 C11.13 12.77, 13.95 11.57, 19.2 9.49 C24.45 7.41, 37.43 2.24, 37.47 0.91 C37.51 -0.42, 25.84 1.93, 19.45 1.51 C13.06 1.09, 2.08 -1.67, -0.87 -1.62" stroke="none" stroke-width="0" fill="#228be6" fill-rule="evenodd"></path><path d="M0.81 -0.01 C-0.43 0.53, -6.35 1.8, -8.21 4.13 C-10.07 6.46, -12.72 12.45, -10.36 13.99 C-8.01 15.53, 1.06 13.73, 5.91 13.37 C10.76 13.02, 13.52 14.04, 18.74 11.83 C23.96 9.62, 36.99 1.93, 37.24 0.14 C37.49 -1.65, 26.39 0.97, 20.24 1.09 C14.09 1.21, 3.63 0.9, 0.34 0.88 M-0.23 -1.06 C-1.52 -0.92, -7.06 0.31, -8.94 2.5 C-10.81 4.68, -14.02 10.14, -11.48 12.04 C-8.94 13.95, 0.94 13.87, 6.3 13.94 C11.66 14.02, 15.82 15, 20.69 12.5 C25.56 9.99, 36.02 0.46, 35.51 -1.1 C35.01 -2.66, 23.16 2.77, 17.66 3.14 C12.16 3.51, 5.12 1.6, 2.53 1.11" stroke="#1971c2" stroke-width="2" fill="none"></path></g></g><mask></mask><g stroke-linecap="round"><g transform="translate(87.88292111109604 189.57888196797637) rotate(0 21.962536549324568 -5.176175451677409)" fill-rule="evenodd"><path d="M2.63 0.37 C5.85 -0.64, 11.63 -4.44, 16.17 -7.39 C20.72 -10.34, 24.82 -17.16, 29.92 -17.32 C35.01 -17.48, 44.84 -11.12, 46.75 -8.33 C48.66 -5.55, 45.36 -2.17, 41.38 -0.62 C37.39 0.92, 28.6 0.51, 22.83 0.93 C17.06 1.36, 8.91 1.62, 6.73 1.93" stroke="none" stroke-width="0" fill="#228be6" fill-rule="evenodd"></path><path d="M2.6 2.56 C5.13 1.65, 12.33 -3.12, 17.09 -5.69 C21.85 -8.27, 26.87 -12.71, 31.14 -12.88 C35.42 -13.04, 41.62 -8.83, 42.75 -6.67 C43.88 -4.51, 41.35 -1.5, 37.93 0.07 C34.51 1.64, 27.2 2.98, 22.21 2.75 C17.23 2.51, 10.48 -0.99, 8.01 -1.33 M0.56 1.49 C2.45 0.87, 9.42 -0.02, 14.19 -3.24 C18.96 -6.46, 24.34 -16.36, 29.19 -17.83 C34.04 -19.3, 42.41 -15.31, 43.28 -12.04 C44.16 -8.77, 37.43 -1.54, 34.44 1.77 C31.46 5.07, 30.77 7.55, 25.39 7.78 C20 8.01, 5.38 4.44, 2.13 3.14" stroke="#1971c2" stroke-width="2" fill="none"></path></g></g><mask></mask><g stroke-linecap="round"><g transform="translate(168.1831168580111 21.48398152399608) rotate(0 41.547818612727724 67.49410061057267)" fill-rule="evenodd"><path d="M3.7 -1.46 C8.85 -1.7, 18.51 -2.33, 27.34 -2 C36.16 -1.68, 50.62 -2.67, 56.65 0.51 C62.68 3.68, 59.81 12.42, 63.52 17.05 C67.23 21.69, 75.31 22.1, 78.92 28.32 C82.52 34.54, 87.63 40.94, 85.16 54.36 C82.69 67.78, 69.92 95.63, 64.11 108.85 C58.31 122.06, 52.12 132.7, 50.3 133.65 C48.49 134.61, 53.46 120.37, 53.21 114.58 C52.96 108.79, 48.79 104.32, 48.82 98.93 C48.86 93.55, 52.39 88.98, 53.43 82.28 C54.46 75.58, 57.31 66.57, 55.03 58.73 C52.75 50.9, 47.83 44.78, 39.74 35.26 C31.66 25.74, 12.04 6.83, 6.52 1.62" stroke="none" stroke-width="0" fill="#228be6" fill-rule="evenodd"></path><path d="M-1.62 2.18 C3.4 1.61, 20.12 -3.31, 29.5 -3.33 C38.88 -3.36, 48.32 -1.07, 54.66 2.04 C61.01 5.16, 63.41 10.3, 67.57 15.35 C71.73 20.4, 76.93 26.48, 79.63 32.35 C82.32 38.22, 86.18 37.88, 83.75 50.58 C81.32 63.28, 70.9 94.05, 65.05 108.56 C59.2 123.07, 50.85 136.01, 48.67 137.65 C46.5 139.3, 52.03 124.87, 52.01 118.44 C52 112.01, 48.97 105.42, 48.6 99.06 C48.24 92.7, 49.49 86.74, 49.82 80.29 C50.16 73.85, 52.24 68.85, 50.59 60.38 C48.95 51.92, 47.23 39.7, 39.95 29.49 C32.67 19.27, 12.25 3.95, 6.9 -0.91 M2.69 0.89 C7.38 0.71, 18.79 -0.92, 27.11 -0.29 C35.44 0.33, 45.8 2.84, 52.64 4.63 C59.48 6.42, 62.9 6.89, 68.15 10.45 C73.4 14.02, 82.21 19.78, 84.14 26.03 C86.08 32.29, 82.76 34.61, 79.76 48.01 C76.77 61.41, 71.73 91.41, 66.16 106.45 C60.58 121.48, 49.27 136.67, 46.32 138.22 C43.37 139.78, 47.82 122.29, 48.46 115.76 C49.1 109.23, 49.86 105.87, 50.17 99.06 C50.48 92.25, 49.54 81.63, 50.32 74.91 C51.1 68.19, 56.51 65.39, 54.84 58.75 C53.17 52.11, 48.51 43.89, 40.3 35.07 C32.1 26.26, 10.72 11.98, 5.59 5.84" stroke="#1971c2" stroke-width="2" fill="none"></path></g></g><mask></mask><g stroke-linecap="round"><g transform="translate(93.36637201551775 162.10944771446145) rotate(0 -32.894102576276055 -55.19665025957383)" fill-rule="evenodd"><path d="M-3.58 0.14 C-6.03 -2.5, -11.5 -8.07, -12.54 -12.02 C-13.57 -15.96, -9.62 -17.76, -9.81 -23.52 C-9.99 -29.29, -13.57 -37.48, -13.64 -46.58 C-13.71 -55.68, -10.08 -70.43, -10.21 -78.12 C-10.34 -85.81, -15.21 -86.42, -14.42 -92.71 C-13.63 -99, -10.09 -109.3, -5.46 -115.84 C-0.83 -122.39, 14.85 -127.99, 13.34 -131.99 C11.84 -135.99, -6.53 -138.36, -14.5 -139.85 C-22.47 -141.33, -28.51 -142.4, -34.48 -140.89 C-40.46 -139.39, -45.55 -133.69, -50.33 -130.83 C-55.12 -127.96, -59.78 -127.04, -63.2 -123.72 C-66.63 -120.39, -69.38 -119.98, -70.87 -110.85 C-72.37 -101.72, -72.37 -81.95, -72.17 -68.94 C-71.96 -55.93, -72.3 -43.73, -69.66 -32.79 C-67.02 -21.84, -60.01 -9.78, -56.32 -3.27 C-52.63 3.24, -50.59 2.27, -47.52 6.29 C-44.45 10.31, -40.71 16.76, -37.88 20.84 C-35.06 24.93, -34.18 30.95, -30.54 30.8 C-26.9 30.66, -20.5 24.52, -16.06 19.97 C-11.61 15.43, -5.83 6.04, -3.85 3.52" stroke="none" stroke-width="0" fill="#228be6" fill-rule="evenodd"></path><path d="M0.83 -1.64 C-0.64 -3.65, -9.05 -7.41, -11.31 -12.12 C-13.56 -16.83, -12.55 -24.34, -12.68 -29.91 C-12.81 -35.48, -12.25 -37.61, -12.09 -45.54 C-11.92 -53.47, -11.37 -70.41, -11.69 -77.49 C-12 -84.57, -15.25 -80.81, -13.98 -88.01 C-12.71 -95.21, -8.08 -113.46, -4.05 -120.71 C-0.02 -127.95, 11.47 -128.9, 10.21 -131.5 C8.95 -134.09, -3.7 -135.2, -11.6 -136.25 C-19.5 -137.3, -29.93 -137.71, -37.21 -137.81 C-44.5 -137.92, -50.04 -139.71, -55.33 -136.88 C-60.62 -134.05, -65.87 -125.52, -68.94 -120.83 C-72.01 -116.13, -73.07 -117.41, -73.76 -108.7 C-74.45 -100, -74.37 -81.15, -73.08 -68.6 C-71.8 -56.05, -69.43 -44.05, -66.05 -33.41 C-62.66 -22.77, -56.06 -12.29, -52.76 -4.74 C-49.45 2.8, -48.4 7.32, -46.22 11.88 C-44.04 16.44, -42.47 19.75, -39.65 22.63 C-36.84 25.51, -33.3 30.29, -29.31 29.16 C-25.33 28.02, -19.67 20.47, -15.73 15.82 C-11.79 11.16, -7.96 3.46, -5.68 1.24 M-2.16 3.64 C-2.48 2.11, -3.7 -3.28, -5.74 -8.55 C-7.79 -13.82, -13.41 -22.21, -14.45 -27.96 C-15.48 -33.72, -11.79 -35.02, -11.95 -43.06 C-12.11 -51.11, -15.36 -68.45, -15.39 -76.26 C-15.42 -84.06, -14.4 -83.2, -12.12 -89.89 C-9.85 -96.57, -5.01 -109.48, -1.74 -116.38 C1.53 -123.28, 9.78 -127.44, 7.49 -131.28 C5.2 -135.13, -8.23 -138.39, -15.46 -139.45 C-22.69 -140.5, -29.32 -138.19, -35.91 -137.62 C-42.5 -137.06, -50.26 -138.6, -55 -136.05 C-59.75 -133.51, -61.36 -127.86, -64.39 -122.35 C-67.42 -116.85, -71.32 -112.08, -73.19 -103.02 C-75.05 -93.96, -77.07 -79.6, -75.57 -67.98 C-74.07 -56.37, -67.18 -44.41, -64.18 -33.31 C-61.18 -22.2, -60.29 -9.33, -57.58 -1.38 C-54.87 6.57, -50.53 10.39, -47.92 14.39 C-45.31 18.38, -44.65 20.19, -41.94 22.61 C-39.23 25.02, -36.24 29.29, -31.66 28.88 C-27.07 28.47, -19.66 25.24, -14.43 20.15 C-9.19 15.05, -1.19 1.68, -0.24 -1.7" stroke="#1971c2" stroke-width="2" fill="none"></path></g></g><mask></mask><g stroke-linecap="round"><g transform="translate(86.71448211652614 92.00950336444828) rotate(0 18.279188545787974 31.589143670076737)" fill-rule="evenodd"><path d="M0.42 1.5 C0.22 5.48, 2.23 18.08, 1.7 24.41 C1.17 30.73, -3.07 35.85, -2.78 39.45 C-2.5 43.05, 0.79 42.16, 3.42 46.03 C6.06 49.9, 9.35 58.06, 13.02 62.69 C16.69 67.32, 21.66 75.54, 25.46 73.81 C29.26 72.07, 33.47 59.93, 35.81 52.28 C38.14 44.64, 39.43 33.85, 39.47 27.95 C39.51 22.06, 36.09 20.94, 36.03 16.9 C35.96 12.87, 39.98 8.21, 39.09 3.74 C38.19 -0.72, 37.62 -9.04, 30.64 -9.88 C23.66 -10.72, 2.95 -2.76, -2.79 -1.3" stroke="none" stroke-width="0" fill="#228be6" fill-rule="evenodd"></path><path d="M1.47 -0.62 C1.93 3.57, 1.36 19.64, 0.63 25.35 C-0.11 31.05, -3.15 29.67, -2.95 33.61 C-2.76 37.56, -0.91 43.66, 1.8 49 C4.51 54.34, 9.05 62, 13.31 65.65 C17.56 69.31, 23.54 73.98, 27.34 70.93 C31.14 67.88, 33.7 53.52, 36.1 47.36 C38.51 41.2, 41.45 39.37, 41.78 33.99 C42.11 28.6, 38.24 20.31, 38.09 15.06 C37.93 9.8, 41.76 6.44, 40.85 2.49 C39.94 -1.46, 39.73 -7.79, 32.64 -8.64 C25.54 -9.5, 3.58 -4.47, -1.71 -2.65 M-1.18 -3.43 C-0.78 -0.16, -0.12 14.17, -0.86 20.65 C-1.6 27.14, -6.11 30.43, -5.61 35.47 C-5.12 40.51, -0.42 45.79, 2.12 50.9 C4.65 56.01, 6.05 63.16, 9.59 66.12 C13.13 69.07, 19.87 72.36, 23.35 68.65 C26.84 64.93, 27.69 49.56, 30.49 43.84 C33.28 38.11, 38.23 39.49, 40.13 34.29 C42.03 29.1, 42.67 17.9, 41.88 12.66 C41.09 7.42, 38.01 6.01, 35.37 2.85 C32.73 -0.3, 31.49 -6.39, 26.04 -6.28 C20.59 -6.16, 6.69 2.25, 2.67 3.55" stroke="#1971c2" stroke-width="2" fill="none"></path></g></g><mask></mask><g stroke-linecap="round"><g transform="translate(187.45261289438076 88.49360335367635) rotate(0 12.91611438097766 27.855196961603696)" fill-rule="evenodd"><path d="M0.07 1.36 C-0.12 2.33, -2.59 3.65, -2.18 7.33 C-1.78 11.02, 0.61 18.88, 2.52 23.47 C4.42 28.05, 6.14 29.09, 9.24 34.86 C12.34 40.63, 18.84 57.8, 21.11 58.09 C23.38 58.37, 23.08 42.61, 22.86 36.56 C22.63 30.52, 19.85 28.82, 19.75 21.83 C19.66 14.85, 24.16 -0.99, 22.28 -5.35 C20.4 -9.7, 12.72 -5.26, 8.48 -4.3 C4.23 -3.34, -1.34 0.05, -3.18 0.43" stroke="none" stroke-width="0" fill="#228be6" fill-rule="evenodd"></path><path d="M1.6 -0.85 C1.45 1.18, -2.42 5.71, -2.43 9.56 C-2.45 13.4, -0.68 17.76, 1.53 22.2 C3.74 26.63, 7.96 29.57, 10.85 36.17 C13.74 42.78, 16.6 61.2, 18.86 61.82 C21.12 62.45, 23.47 46.37, 24.42 39.91 C25.37 33.45, 24.01 30.52, 24.55 23.05 C25.1 15.59, 29.88 -0.44, 27.7 -4.88 C25.52 -9.32, 16.32 -4.4, 11.45 -3.58 C6.58 -2.75, 0.8 -0.87, -1.51 0.09 M-0.97 -3.78 C-0.09 -2.26, 2.99 1.05, 2.98 5.75 C2.97 10.45, -2.64 19.08, -1.02 24.41 C0.59 29.75, 8.6 31.24, 12.67 37.76 C16.74 44.27, 21.09 63.41, 23.39 63.53 C25.7 63.65, 25.92 45.57, 26.48 38.46 C27.05 31.35, 26.87 28.2, 26.79 20.86 C26.7 13.52, 29.02 -1.16, 25.96 -5.6 C22.9 -10.04, 12.82 -6.57, 8.41 -5.79 C4 -5.02, 1.38 -1.41, -0.51 -0.94" stroke="#1971c2" stroke-width="2" fill="none"></path></g></g><mask></mask><g stroke-linecap="round"><g transform="translate(107.35385030336283 23.791677575376866) rotate(0 28.149977694872177 116.50735170668753)"><path d="M-2.39 2.09 C-0.12 0.59, 9.25 -6, 13.29 -7.67 C17.32 -9.33, 17.18 -7.66, 21.84 -7.92 C26.49 -8.18, 35.86 -9.55, 41.22 -9.23 C46.59 -8.9, 49.28 -5.47, 54.02 -5.98 C58.75 -6.48, 64.1 -11.53, 69.64 -12.28 C75.18 -13.02, 81.88 -10.92, 87.28 -10.45 C92.67 -9.98, 97.58 -9.97, 102.02 -9.44 C106.45 -8.9, 109.37 -8.44, 113.9 -7.23 C118.43 -6.02, 124.48 -5.3, 129.21 -2.18 C133.94 0.94, 139.19 7.7, 142.29 11.5 C145.4 15.3, 146.31 14.38, 147.84 20.61 C149.38 26.83, 152.29 38.25, 151.51 48.84 C150.73 59.43, 146.08 76.51, 143.17 84.13 C140.26 91.76, 136.99 88.89, 134.02 94.59 C131.05 100.28, 129.16 110.55, 125.36 118.3 C121.56 126.06, 110.35 136.91, 111.24 141.12 C112.13 145.33, 125.61 143.92, 130.69 143.56 C135.76 143.19, 138 138.99, 141.68 138.93 C145.36 138.87, 151.39 140.76, 152.77 143.22 C154.16 145.69, 153.61 149.82, 150.01 153.74 C146.41 157.66, 136.87 164.59, 131.16 166.73 C125.45 168.87, 120.62 166.3, 115.76 166.59 C110.89 166.88, 104.75 165.18, 101.96 168.46 C99.16 171.74, 99.75 179.9, 98.99 186.28 C98.23 192.65, 99.49 199.04, 97.39 206.7 C95.29 214.36, 91.35 226.5, 86.39 232.23 C81.43 237.97, 74.62 239.33, 67.61 241.11 C60.6 242.89, 50.44 244.52, 44.32 242.92 C38.2 241.32, 34.17 237.34, 30.87 231.51 C27.58 225.68, 25.79 215.34, 24.55 207.93 C23.3 200.52, 23.15 193.3, 23.38 187.04 C23.61 180.78, 29.18 171.93, 25.92 170.38 C22.66 168.83, 10.24 176.28, 3.8 177.76 C-2.64 179.24, -8.21 180.31, -12.73 179.28 C-17.25 178.24, -21.76 174.63, -23.3 171.54 C-24.84 168.45, -24.17 163.52, -21.97 160.74 C-19.77 157.97, -14.66 156.91, -10.1 154.86 C-5.54 152.82, 5.62 150.17, 5.39 148.48 C5.16 146.78, -6.72 143.24, -11.48 144.69 C-16.23 146.14, -18.71 152.41, -23.11 157.2 C-27.52 161.99, -31.67 171.3, -37.91 173.42 C-44.16 175.54, -55.48 173.43, -60.59 169.91 C-65.7 166.39, -65.21 159.27, -68.57 152.3 C-71.93 145.33, -77.26 135.96, -80.75 128.09 C-84.23 120.22, -86.83 114, -89.47 105.08 C-92.1 96.16, -95.34 83.67, -96.56 74.57 C-97.79 65.46, -97.36 58.73, -96.81 50.47 C-96.26 42.21, -95 31.17, -93.27 25 C-91.54 18.84, -92.4 18.71, -86.43 13.48 C-80.46 8.24, -68.56 -3.22, -57.46 -6.41 C-46.36 -9.6, -29.77 -6.88, -19.83 -5.67 C-9.88 -4.46, -0.95 0.36, 2.2 0.85 M1.5 0.76 C3.6 -0.43, 9.04 -3.38, 12.03 -4.29 C15.01 -5.19, 14.35 -4.25, 19.44 -4.66 C24.52 -5.06, 37.26 -6.73, 42.56 -6.72 C47.85 -6.72, 47.38 -4.53, 51.22 -4.65 C55.05 -4.78, 60.58 -5.97, 65.57 -7.49 C70.56 -9.01, 75.42 -13.39, 81.15 -13.77 C86.88 -14.14, 95.02 -10.4, 99.95 -9.74 C104.88 -9.08, 106.82 -10.74, 110.73 -9.79 C114.63 -8.84, 118.1 -8, 123.36 -4.03 C128.63 -0.07, 137.56 8.84, 142.31 13.99 C147.07 19.14, 150.18 21.45, 151.91 26.87 C153.65 32.3, 154.39 36.94, 152.71 46.53 C151.04 56.12, 145.04 75.38, 141.88 84.38 C138.71 93.39, 136.2 94.5, 133.71 100.55 C131.23 106.6, 129.94 113.51, 126.96 120.7 C123.99 127.9, 114.41 139.93, 115.89 143.73 C117.37 147.54, 130.87 144.42, 135.83 143.54 C140.78 142.67, 142.82 137.95, 145.61 138.48 C148.4 139, 152.2 143.35, 152.57 146.69 C152.94 150.02, 151.52 155.72, 147.84 158.46 C144.15 161.21, 135.83 160.94, 130.46 163.17 C125.09 165.4, 121.08 171.39, 115.6 171.84 C110.12 172.29, 101.06 163.27, 97.59 165.86 C94.12 168.45, 95.64 180.42, 94.76 187.39 C93.88 194.36, 94.3 200.15, 92.29 207.69 C90.28 215.23, 86.51 227.7, 82.7 232.62 C78.89 237.55, 75.61 234.9, 69.42 237.23 C63.22 239.57, 52.73 248.08, 45.55 246.65 C38.38 245.21, 30.16 234.59, 26.34 228.65 C22.53 222.7, 23.33 217.26, 22.65 210.99 C21.97 204.72, 22.47 197.77, 22.28 191.03 C22.09 184.29, 23.91 172.51, 21.48 170.54 C19.06 168.57, 12.8 177.95, 7.73 179.21 C2.66 180.47, -3.84 178.77, -8.93 178.09 C-14.02 177.4, -20.07 177.24, -22.8 175.1 C-25.54 172.96, -27.75 167.67, -25.33 165.24 C-22.92 162.82, -13.21 162.94, -8.3 160.52 C-3.4 158.11, 3.83 153.2, 4.12 150.78 C4.4 148.37, -2.23 144.81, -6.62 146.03 C-11 147.25, -16.22 153.61, -22.2 158.1 C-28.18 162.59, -36.88 170.87, -42.49 172.97 C-48.1 175.07, -51.61 173.81, -55.87 170.68 C-60.13 167.55, -63.6 161.28, -68.04 154.19 C-72.49 147.1, -79.71 136.32, -82.56 128.12 C-85.4 119.92, -83.69 113.92, -85.12 104.97 C-86.54 96.01, -89.3 83.95, -91.1 74.38 C-92.91 64.81, -95.59 54.95, -95.94 47.55 C-96.29 40.15, -95 36.83, -93.21 29.99 C-91.41 23.14, -90.26 12.97, -85.19 6.48 C-80.11 0, -73.81 -6.77, -62.76 -8.93 C-51.71 -11.08, -28.75 -8.1, -18.89 -6.45 C-9.04 -4.8, -6.29 0.27, -3.64 0.96" stroke="#1e1e1e" stroke-width="2" fill="none"></path></g></g><mask></mask><g stroke-linecap="round" transform="translate(105.43584518892885 87.90533408524811) rotate(0 7.735868345857398 5.080267427214807)"><path d="M8.1 0.51 C9.46 0.35, 10.91 -0.06, 12.27 0.51 C13.62 1.07, 15.95 2.77, 16.21 3.89 C16.47 5.01, 14.72 6.22, 13.84 7.23 C12.95 8.25, 12.49 9.57, 10.91 9.98 C9.33 10.39, 6.04 10.19, 4.36 9.71 C2.68 9.23, 1.72 7.98, 0.85 7.09 C-0.01 6.21, -1.16 5.33, -0.85 4.39 C-0.53 3.44, 1.3 2.26, 2.75 1.43 C4.19 0.61, 6.87 -0.26, 7.81 -0.57 C8.76 -0.88, 8.21 -0.72, 8.39 -0.43 M7.31 1.3 C8.84 1.34, 11.27 1.58, 12.82 2.16 C14.37 2.74, 16.22 3.73, 16.61 4.78 C17 5.83, 15.94 7.43, 15.16 8.48 C14.38 9.53, 13.46 11.01, 11.92 11.09 C10.39 11.17, 7.8 9.34, 5.95 8.96 C4.1 8.57, 1.6 9.29, 0.83 8.76 C0.05 8.23, 1.26 7.12, 1.28 5.8 C1.3 4.47, 0.02 1.52, 0.96 0.8 C1.9 0.08, 6.12 1.74, 6.91 1.48 C7.7 1.22, 5.75 -0.83, 5.69 -0.75" stroke="none" stroke-width="0" fill="#ffffff"></path><path d="M5.08 -0.52 C6.32 -1.04, 7.6 0.59, 9.17 0.88 C10.74 1.18, 13.45 0.51, 14.49 1.25 C15.53 1.99, 15.51 4.15, 15.41 5.32 C15.32 6.48, 15.26 7.32, 13.93 8.24 C12.6 9.17, 9.13 10.76, 7.41 10.84 C5.68 10.93, 4.65 9.35, 3.6 8.77 C2.55 8.18, 1.75 8.15, 1.12 7.32 C0.48 6.48, -1.13 4.82, -0.23 3.76 C0.67 2.69, 5.36 1.51, 6.49 0.92 C7.63 0.32, 6.71 0.08, 6.59 0.19 M4.22 -1.05 C5.58 -1.32, 8.94 0.45, 10.66 1.09 C12.38 1.74, 13.9 2.07, 14.54 2.83 C15.18 3.59, 14.76 4.57, 14.5 5.67 C14.24 6.76, 14.05 8.82, 13 9.41 C11.96 9.99, 9.87 9.02, 8.24 9.17 C6.61 9.31, 4.69 10.67, 3.23 10.25 C1.76 9.83, -0.43 8.19, -0.53 6.63 C-0.63 5.07, 1.75 2.03, 2.63 0.9 C3.52 -0.23, 4.53 -0.15, 4.77 -0.16 C5.01 -0.18, 3.9 0.62, 4.09 0.82" stroke="#1971c2" stroke-width="2" fill="none"></path></g><g stroke-linecap="round" transform="translate(194.3405906817752 86.28888680988234) rotate(0 6.465806719369539 3.6947435507278783)"><path d="M4.18 0.18 C5.44 0.1, 7.67 0.2, 8.98 0.56 C10.3 0.93, 11.26 1.65, 12.06 2.38 C12.86 3.12, 13.91 4.29, 13.79 4.97 C13.66 5.65, 12.4 5.99, 11.31 6.48 C10.22 6.97, 8.85 7.81, 7.23 7.93 C5.6 8.04, 2.87 7.73, 1.56 7.16 C0.24 6.6, -0.44 5.37, -0.66 4.55 C-0.88 3.74, -0.76 3.16, 0.22 2.26 C1.2 1.37, 4.11 -0.49, 5.21 -0.82 C6.31 -1.15, 6.8 0.14, 6.83 0.26 M3.69 -1.34 C5.23 -1.55, 9.67 -1.63, 10.89 -1.01 C12.11 -0.39, 10.69 1.63, 11.01 2.4 C11.33 3.17, 13.07 2.88, 12.8 3.63 C12.52 4.39, 10.74 6.48, 9.34 6.95 C7.94 7.41, 5.62 6.71, 4.4 6.4 C3.18 6.09, 2.95 5.49, 2.05 5.07 C1.14 4.65, -0.83 4.37, -1.02 3.89 C-1.22 3.41, -0.34 2.68, 0.9 2.17 C2.13 1.66, 5.69 1.3, 6.4 0.83 C7.12 0.36, 5.48 -0.79, 5.17 -0.64" stroke="none" stroke-width="0" fill="#ffffff"></path><path d="M5.22 -0.06 C6.52 -0.4, 8.21 0.23, 9.27 0.5 C10.33 0.77, 11.07 0.7, 11.59 1.57 C12.11 2.44, 12.53 4.91, 12.38 5.71 C12.22 6.52, 11.91 6.01, 10.67 6.39 C9.42 6.77, 6.54 8.1, 4.91 8 C3.27 7.9, 1.82 6.54, 0.86 5.8 C-0.09 5.06, -0.85 4.4, -0.82 3.58 C-0.8 2.75, 0.07 1.48, 1 0.86 C1.93 0.25, 3.82 -0.06, 4.76 -0.12 C5.7 -0.19, 6.59 0.38, 6.65 0.49 M6.81 -1.08 C8.26 -1.54, 8.94 -0.22, 9.76 0.17 C10.58 0.56, 11.44 0.38, 11.74 1.25 C12.04 2.12, 11.78 4.37, 11.57 5.39 C11.37 6.41, 11.53 7.12, 10.5 7.36 C9.47 7.6, 6.75 6.97, 5.38 6.82 C4 6.68, 3.2 6.97, 2.27 6.48 C1.33 5.98, -0.26 4.8, -0.24 3.87 C-0.23 2.94, 1.57 1.38, 2.37 0.88 C3.16 0.39, 3.77 1.12, 4.5 0.92 C5.23 0.73, 6.41 -0.27, 6.77 -0.27" stroke="#1971c2" stroke-width="2" fill="none"></path></g><g stroke-linecap="round"><g transform="translate(1237.9800201524104 129.5225092941522) rotate(0 23.08014676156131 40.68590253519764)"><path d="M1.02 -1.76 C12.73 -0.33, 59.56 5.39, 71.81 9.27 C84.05 13.15, 75.13 16.08, 74.48 21.53 C73.84 26.97, 71.45 39.06, 67.94 41.95 C64.43 44.84, 58.05 39.3, 53.42 38.87 C48.79 38.45, 41.44 36.38, 40.17 39.4 C38.9 42.42, 45.04 51.06, 45.8 56.99 C46.56 62.92, 47 70.09, 44.72 74.97 C42.44 79.85, 35.65 85.16, 32.1 86.29 C28.55 87.42, 25.74 82.9, 23.42 81.74 C21.1 80.58, 21.41 78.7, 18.16 79.33 C14.91 79.97, 8.1 85.17, 3.93 85.56 C-0.23 85.95, -4.32 84.66, -6.83 81.68 C-9.34 78.7, -10.5 72.65, -11.1 67.68 C-11.7 62.71, -11.49 57.22, -10.42 51.87 C-9.35 46.53, -1.8 38.81, -4.69 35.61 C-7.57 32.41, -23.18 35.94, -27.73 32.65 C-32.29 29.37, -32.15 22.06, -32 15.9 C-31.85 9.74, -32.66 -1.6, -26.83 -4.32 C-21 -7.04, 0.06 -1.87, 2.96 -0.4 C5.86 1.07, -7.81 3.62, -9.43 4.51 M-1.86 3.45 C9.49 5.29, 57.9 9.28, 70.55 12.84 C83.2 16.4, 74.41 19.53, 74.02 24.81 C73.63 30.09, 72.02 41.95, 68.2 44.5 C64.37 47.05, 55.35 41.21, 51.07 40.09 C46.8 38.97, 44.36 35.41, 42.54 37.78 C40.71 40.14, 40.15 48, 40.12 54.26 C40.08 60.52, 42.93 70.58, 42.32 75.33 C41.7 80.08, 39.38 81.77, 36.44 82.77 C33.49 83.77, 27.4 82.69, 24.65 81.31 C21.91 79.94, 22.72 73.97, 19.98 74.53 C17.24 75.09, 12.46 83.61, 8.21 84.66 C3.97 85.7, -1.88 83.44, -5.5 80.79 C-9.12 78.14, -12.62 73.62, -13.51 68.74 C-14.39 63.85, -12.64 56.71, -10.81 51.49 C-8.98 46.27, 0.77 40.49, -2.52 37.44 C-5.8 34.39, -26.33 36.7, -30.53 33.17 C-34.73 29.64, -29.13 22.52, -27.71 16.26 C-26.29 10, -27.2 -2.28, -22 -4.38 C-16.8 -6.48, 1.92 2.74, 3.5 3.68 C5.07 4.61, -11.12 1.61, -12.57 1.25" stroke="#2f9e44" stroke-width="2" fill="none"></path></g></g><mask></mask><g stroke-linecap="round" transform="translate(1238.9453197061534 140.21622422718696) rotate(0 13.692275620807322 13.692275620807322)"><path d="M15 0.3 C17.5 0.46, 20.85 2.9, 22.98 4.92 C25.1 6.94, 27.4 9.52, 27.77 12.42 C28.14 15.31, 27.23 19.84, 25.22 22.29 C23.21 24.74, 18.58 26.5, 15.72 27.13 C12.85 27.75, 10.64 27.35, 8.05 26.06 C5.46 24.77, 1.57 22.1, 0.18 19.38 C-1.21 16.65, -1.43 12.59, -0.29 9.69 C0.85 6.79, 4.15 3.38, 7.02 1.96 C9.88 0.54, 15.03 1.24, 16.91 1.15 C18.79 1.05, 18.49 1.3, 18.28 1.38 M15.43 0.29 C18.5 0.2, 21.93 2.28, 24 4.15 C26.06 6.02, 27.65 8.95, 27.84 11.5 C28.04 14.05, 26.77 17.12, 25.15 19.45 C23.53 21.78, 20.84 24.2, 18.12 25.49 C15.39 26.79, 11.36 27.9, 8.81 27.22 C6.25 26.54, 4.2 24.15, 2.8 21.39 C1.41 18.62, -0.17 13.71, 0.43 10.61 C1.04 7.51, 4.19 4.42, 6.44 2.79 C8.68 1.15, 12.67 1.02, 13.92 0.79 C15.17 0.56, 13.75 1.43, 13.94 1.41" stroke="#2f9e44" stroke-width="2" fill="none"></path></g><g stroke-linecap="round"><g transform="translate(1252.0052105476934 146.8056744894232) rotate(0 0.1185584147742702 8.025706187594864)" fill-rule="evenodd"><path d="M0.17 -0.18 C0.49 0.01, -0.3 1.51, 0.51 2.83 C1.31 4.16, 4.01 7.05, 5.02 7.78 C6.04 8.52, 7.05 6.16, 6.6 7.26 C6.15 8.35, 4.02 13.17, 2.32 14.33 C0.62 15.49, -2.05 15.75, -3.6 14.21 C-5.15 12.67, -7.5 7.09, -6.98 5.09 C-6.46 3.09, -1.32 3.16, -0.48 2.19" stroke="none" stroke-width="0" fill="#2f9e44" fill-rule="evenodd"></path><path d="M1.1 0.26 C1.4 1.12, 2.08 3.74, 2.47 4.96 C2.86 6.17, 2.6 7.11, 3.46 7.53 C4.33 7.95, 7.54 6.26, 7.67 7.49 C7.8 8.72, 6.19 13.43, 4.26 14.92 C2.33 16.41, -2.45 17.61, -3.92 16.41 C-5.39 15.2, -5.39 10.46, -4.56 7.67 C-3.73 4.88, 0.34 1.14, 1.05 -0.33 M0.22 -0.65 C0.36 -0.1, 1.48 2.3, 1.9 3.31 C2.32 4.32, 1.8 4.58, 2.76 5.39 C3.72 6.2, 7.61 6.48, 7.67 8.15 C7.72 9.82, 5.31 14.22, 3.1 15.41 C0.88 16.6, -3.95 16.76, -5.63 15.3 C-7.3 13.85, -7.99 9.37, -6.95 6.67 C-5.92 3.98, -0.83 0.18, 0.57 -0.85" stroke="#2f9e44" stroke-width="2" fill="none"></path></g></g><mask></mask><g stroke-linecap="round" transform="translate(1247.2352433071287 156.6562235315343) rotate(0 2.068619775361185 1.5760936730761728)"><path d="M3.13 0.21 C3.59 0.3, 3.66 -0.13, 3.75 0.18 C3.85 0.48, 3.69 1.57, 3.69 2.03 C3.68 2.49, 4.08 2.75, 3.72 2.92 C3.35 3.1, 2.05 3.17, 1.52 3.07 C1 2.96, 0.81 2.5, 0.59 2.29 C0.37 2.08, 0.27 2.12, 0.2 1.82 C0.13 1.51, -0.07 0.74, 0.19 0.48 C0.44 0.22, 1.23 0.39, 1.73 0.26 C2.23 0.12, 3.05 -0.29, 3.18 -0.34 C3.31 -0.4, 2.55 -0.17, 2.5 -0.08 M1.6 0.15 C2.12 -0.02, 3.67 -0.23, 3.96 0.07 C4.24 0.38, 3.29 1.47, 3.29 1.98 C3.3 2.48, 4.22 3.03, 3.99 3.11 C3.77 3.19, 2.45 2.56, 1.93 2.44 C1.41 2.32, 1.08 2.4, 0.86 2.39 C0.64 2.38, 0.87 2.73, 0.62 2.41 C0.37 2.09, -0.84 0.81, -0.64 0.46 C-0.45 0.1, 1.39 0.24, 1.81 0.28 C2.22 0.32, 1.81 0.68, 1.85 0.68 C1.89 0.68, 1.9 0.33, 2.05 0.28" stroke="none" stroke-width="0" fill="#ffffff"></path><path d="M1.88 0.62 C2.28 0.53, 2.23 0.53, 2.46 0.59 C2.69 0.65, 2.97 0.82, 3.28 0.99 C3.59 1.15, 4.24 1.36, 4.31 1.58 C4.39 1.8, 4.18 2.15, 3.73 2.32 C3.28 2.49, 2.1 2.46, 1.61 2.59 C1.12 2.73, 1.13 3.16, 0.79 3.11 C0.45 3.05, -0.37 2.71, -0.44 2.26 C-0.51 1.81, 0.06 0.8, 0.37 0.42 C0.69 0.04, 1.25 0.02, 1.44 0 C1.64 -0.02, 1.46 0.35, 1.52 0.31 M2.66 -0.53 C3.1 -0.42, 3.27 -0.28, 3.67 0.14 C4.07 0.55, 5.2 1.39, 5.05 1.95 C4.91 2.5, 3.25 3.3, 2.81 3.48 C2.37 3.65, 2.68 3.21, 2.42 2.99 C2.17 2.77, 1.53 2.37, 1.29 2.15 C1.04 1.93, 1.28 1.9, 0.95 1.67 C0.62 1.45, -0.68 0.97, -0.69 0.78 C-0.71 0.59, 0.21 0.81, 0.87 0.53 C1.53 0.25, 2.97 -0.92, 3.27 -0.92 C3.57 -0.91, 2.71 0.5, 2.68 0.56" stroke="#ffffff" stroke-width="2" fill="none"></path></g><g stroke-linecap="round"><g transform="translate(1238.7977321443532 178.06285321013326) rotate(0 15.304209843136505 9.002052503054784)"><path d="M0.09 0.4 C4.84 0.25, 24.64 -3.32, 29.44 -0.81 C34.23 1.7, 31.04 12.2, 28.86 15.45 C26.69 18.71, 20.38 21.14, 16.39 18.73 C12.4 16.31, 6.84 4.19, 4.92 0.96 M-1.33 -0.43 C3.18 -0.45, 23.55 -1.91, 28.5 0.39 C33.46 2.69, 30.45 10.66, 28.4 13.38 C26.35 16.1, 19.87 18.66, 16.22 16.72 C12.57 14.79, 8.24 4.29, 6.49 1.77" stroke="#2f9e44" stroke-width="2" fill="none"></path></g></g><mask></mask><g stroke-linecap="round"><g transform="translate(1252.6179560501096 190.1153708504994) rotate(0 7.294142114655642 -2.1486258647249485)"><path d="M-0.24 -0.07 C0.53 -0.68, 2.39 -3.7, 4.9 -4.15 C7.41 -4.61, 13.16 -2.9, 14.83 -2.8 M0.64 -0.58 C1.3 -1.1, 2.13 -3.18, 4.43 -3.69 C6.72 -4.2, 12.65 -3.73, 14.42 -3.66" stroke="#2f9e44" stroke-width="2" fill="none"></path></g></g><mask></mask><g stroke-linecap="round"><g transform="translate(1226.9059122871013 180.63406065154788) rotate(0 -8.870311726452883 13.738387144605724)" fill-rule="evenodd"><path d="M-1.52 -2.08 C-3.74 -0.06, -9.36 6.31, -11.93 9.92 C-14.5 13.54, -16.82 16.73, -16.93 19.62 C-17.03 22.5, -13.54 26.7, -12.56 27.24 C-11.57 27.78, -11.62 24.03, -11.01 22.84 C-10.41 21.65, -9.23 22.04, -8.92 20.11 C-8.62 18.17, -10.64 14.32, -9.18 11.22 C-7.71 8.12, -1.59 3.02, -0.14 1.51" stroke="none" stroke-width="0" fill="#40c057" fill-rule="evenodd"></path><path d="M-0.99 -0.14 C-2.46 1.66, -7.31 8.28, -10.02 11.66 C-12.73 15.04, -16.45 17.3, -17.23 20.15 C-18.01 22.99, -15.9 28.44, -14.68 28.73 C-13.46 29.01, -11.16 23.07, -9.91 21.87 C-8.65 20.67, -7.08 23.39, -7.16 21.53 C-7.24 19.67, -11.52 14.18, -10.39 10.69 C-9.26 7.19, -2.12 2.42, -0.39 0.56 M0.7 -1.26 C-0.75 0.15, -7.32 6.88, -10.49 10.09 C-13.67 13.3, -17.69 15.27, -18.35 18 C-19.01 20.74, -15.69 26.29, -14.47 26.49 C-13.24 26.69, -12.43 20.21, -11.01 19.2 C-9.59 18.18, -6.18 21.47, -5.97 20.4 C-5.75 19.34, -10.44 16.1, -9.72 12.79 C-8.99 9.47, -2.97 2.39, -1.62 0.52" stroke="#2f9e44" stroke-width="2" fill="none"></path></g></g><mask></mask><g stroke-linecap="round"><g transform="translate(1281.0665300155956 177.45958845972154) rotate(0 5.121020636274352 10.209358882998288)"><path d="M-0.25 0.48 C1.31 1.09, 7.35 2.06, 9.27 4.09 C11.19 6.13, 12.92 10, 11.27 12.68 C9.62 15.35, 1.43 18.94, -0.61 20.16 M0.62 0.26 C2.36 0.68, 8.51 1.18, 10.25 3.36 C11.99 5.54, 13.09 10.69, 11.06 13.33 C9.03 15.97, 0.2 18.03, -1.91 19.19" stroke="#2f9e44" stroke-width="2" fill="none"></path></g></g><mask></mask><g stroke-linecap="round"><g transform="translate(1278.7232800466454 197.6375388518378) rotate(0 -4.7747481577710005 0.2658617920903623)" fill-rule="evenodd"><path d="M-0.56 0.45 C-0.56 1.35, 1.13 4.45, -0.57 5.33 C-2.28 6.2, -9.92 7, -10.78 5.72 C-11.65 4.43, -7.06 -0.57, -5.77 -2.4 C-4.48 -4.23, -3.88 -5.91, -3.05 -5.28 C-2.23 -4.65, -1.24 0.73, -0.8 1.39" stroke="none" stroke-width="0" fill="#40c057" fill-rule="evenodd"></path><path d="M0.09 -0.19 C-0.14 0.42, 0.57 3.16, -1.1 3.96 C-2.78 4.77, -9.23 5.54, -9.94 4.63 C-10.65 3.71, -6.26 0.09, -5.36 -1.51 C-4.46 -3.11, -5.42 -5.17, -4.54 -4.97 C-3.65 -4.77, -0.71 -1.06, -0.04 -0.31 M-0.53 -0.77 C-0.85 -0.1, 0.09 3.6, -1.5 4.56 C-3.09 5.52, -9.48 5.92, -10.08 4.99 C-10.68 4.07, -6.17 0.66, -5.09 -0.98 C-4.01 -2.62, -4.54 -5.16, -3.6 -4.87 C-2.65 -4.59, 0.06 -0.15, 0.59 0.72" stroke="#2f9e44" stroke-width="2" fill="none"></path></g></g><mask></mask><g stroke-linecap="round"><g transform="translate(1364.7096290481677 169.13884185645293) rotate(0 46.85233957861806 6.39508899538518)"><path d="M-0.47 -0.01 C-0.72 -5.08, -5.12 -23.18, -0.88 -29.41 C3.36 -35.65, 13.45 -36.07, 24.96 -37.41 C36.47 -38.75, 56.57 -38.56, 68.17 -37.45 C79.77 -36.33, 90.03 -32.81, 94.54 -30.74 C99.06 -28.68, 95.12 -27.5, 95.24 -25.04 C95.37 -22.58, 95.82 -19.53, 95.3 -15.98 C94.78 -12.44, 96.41 -6.26, 92.11 -3.79 C87.82 -1.32, 73.46 -3.25, 69.54 -1.17 C65.62 0.91, 67.15 3.96, 68.6 8.7 C70.04 13.45, 77.38 21.05, 78.23 27.29 C79.08 33.53, 76.7 42.6, 73.7 46.15 C70.7 49.71, 63.41 48.97, 60.23 48.59 C57.04 48.22, 56.98 44.6, 54.58 43.88 C52.17 43.17, 49.45 43.09, 45.79 44.29 C42.13 45.49, 36.58 51.82, 32.62 51.08 C28.66 50.33, 24 43.97, 22.02 39.81 C20.04 35.66, 21.04 30.32, 20.72 26.16 C20.41 22.01, 19.67 19.75, 20.11 14.91 C20.54 10.07, 24.5 -0.4, 23.35 -2.87 C22.19 -5.33, 16.94 -0.31, 13.18 0.13 C9.42 0.58, 2.81 -0.13, 0.78 -0.2 M1.48 -1.06 C1.02 -6.04, -5.69 -22.22, -1.81 -28.08 C2.07 -33.93, 13.57 -34.78, 24.76 -36.21 C35.94 -37.63, 53.85 -37.68, 65.3 -36.63 C76.76 -35.58, 88.31 -32.22, 93.48 -29.93 C98.65 -27.63, 95.95 -25.49, 96.32 -22.88 C96.7 -20.27, 96.09 -17.88, 95.73 -14.25 C95.36 -10.62, 98.22 -3.11, 94.14 -1.08 C90.05 0.95, 75.39 -3.63, 71.2 -2.05 C67.01 -0.48, 67.75 3.85, 69.02 8.38 C70.29 12.91, 77.72 18.96, 78.82 25.13 C79.91 31.29, 78.7 41.03, 75.59 45.35 C72.48 49.68, 63.74 51.29, 60.16 51.07 C56.58 50.84, 56.39 45.24, 54.11 44.03 C51.83 42.82, 50.48 42.95, 46.51 43.8 C42.54 44.65, 34.56 49.71, 30.29 49.13 C26.02 48.56, 22.64 44.08, 20.9 40.35 C19.16 36.62, 19.63 30.96, 19.84 26.77 C20.05 22.58, 21.42 19.93, 22.14 15.21 C22.87 10.49, 25.77 1.11, 24.19 -1.54 C22.61 -4.19, 16.45 -0.65, 12.66 -0.67 C8.88 -0.69, 3.33 -1.55, 1.48 -1.65" stroke="#2f9e44" stroke-width="2" fill="none"></path></g></g><mask></mask><g stroke-linecap="round" transform="translate(1397.0659384871924 144.0400059982196) rotate(0 14.061395436939165 13.910199993251581)"><path d="M12.79 0.45 C15.52 0.04, 19.15 0.78, 21.54 2.4 C23.92 4.02, 26.23 7.33, 27.12 10.17 C28.01 13.02, 28.11 16.81, 26.87 19.49 C25.63 22.16, 22.4 24.85, 19.7 26.25 C16.99 27.65, 13.57 28.58, 10.66 27.89 C7.75 27.2, 4.01 24.54, 2.25 22.12 C0.48 19.7, -0.2 16.41, 0.06 13.36 C0.32 10.31, 1.68 6.1, 3.79 3.84 C5.9 1.58, 11.15 0.47, 12.7 -0.18 C14.25 -0.83, 13.05 -0.29, 13.07 -0.07 M14.18 0.42 C17.24 0.16, 21.51 1.17, 23.74 3.08 C25.97 4.99, 27.09 8.91, 27.58 11.89 C28.07 14.87, 28.03 18.44, 26.67 20.95 C25.32 23.47, 22.34 26.05, 19.44 26.99 C16.53 27.92, 12.2 27.46, 9.23 26.54 C6.26 25.61, 3.22 24.04, 1.61 21.43 C0.01 18.81, -1.04 13.9, -0.4 10.85 C0.23 7.81, 2.93 4.99, 5.43 3.18 C7.94 1.36, 13.14 0.53, 14.63 -0.02 C16.13 -0.58, 14.45 -0.28, 14.38 -0.13" stroke="#2f9e44" stroke-width="2" fill="none"></path></g><g stroke-linecap="round" transform="translate(1401.520592570142 149.85594461641642) rotate(0 8.920681138720738 8.013482521780674)"><path d="M8.36 0.07 C10.24 -0.23, 12.7 0.63, 14.28 1.63 C15.86 2.64, 17.44 4.48, 17.85 6.1 C18.26 7.71, 17.53 9.89, 16.73 11.33 C15.94 12.77, 14.68 14.01, 13.09 14.75 C11.51 15.48, 9.18 16.07, 7.22 15.76 C5.26 15.45, 2.53 14.33, 1.34 12.89 C0.15 11.45, -0.21 8.85, 0.07 7.12 C0.35 5.39, 1.59 3.66, 3.02 2.5 C4.45 1.35, 7.59 0.52, 8.64 0.18 C9.69 -0.15, 9.27 0.44, 9.32 0.49 M8.55 -0.32 C10.34 -0.37, 13.32 1.32, 14.89 2.33 C16.45 3.34, 17.53 4.07, 17.94 5.72 C18.35 7.37, 18.32 10.67, 17.32 12.21 C16.32 13.74, 13.78 14.44, 11.94 14.91 C10.09 15.39, 7.88 15.56, 6.23 15.05 C4.58 14.55, 2.96 13.25, 2.04 11.87 C1.11 10.49, 0.64 8.38, 0.65 6.79 C0.67 5.21, 0.85 3.38, 2.14 2.36 C3.43 1.34, 7.44 0.98, 8.4 0.66 C9.35 0.33, 7.74 0.33, 7.86 0.39" stroke="none" stroke-width="0" fill="#2f9e44"></path><path d="M10.17 0.15 C11.99 0.18, 14.04 1.02, 15.39 2.25 C16.73 3.49, 18.21 5.85, 18.25 7.56 C18.29 9.27, 16.85 11.19, 15.63 12.5 C14.42 13.82, 12.81 15.02, 10.97 15.46 C9.14 15.89, 6.37 15.79, 4.62 15.11 C2.86 14.43, 1.16 12.99, 0.44 11.4 C-0.27 9.81, -0.26 7.21, 0.31 5.58 C0.88 3.95, 2.12 2.51, 3.87 1.64 C5.61 0.77, 9.55 0.61, 10.77 0.37 C11.99 0.13, 11.18 0.1, 11.19 0.19 M10.69 0.01 C12.58 0.25, 15.38 1.52, 16.63 2.97 C17.88 4.42, 18.38 7.09, 18.19 8.73 C18 10.38, 16.94 11.7, 15.48 12.84 C14.02 13.99, 11.49 15.19, 9.46 15.6 C7.42 16.01, 4.86 16.26, 3.28 15.31 C1.7 14.37, 0.52 11.58, -0.02 9.92 C-0.56 8.27, -0.88 6.9, 0.03 5.37 C0.94 3.83, 3.58 1.59, 5.45 0.72 C7.32 -0.16, 10.39 0.29, 11.25 0.11 C12.11 -0.07, 10.71 -0.55, 10.62 -0.36" stroke="#2f9e44" stroke-width="2" fill="none"></path></g><g stroke-linecap="round" transform="translate(1407.7920417307696 152.95529976611738) rotate(0 4.162422827155751 2.799849767788743)"><path d="M4.51 -0.28 C5.32 -0.26, 6.16 0.36, 6.74 0.81 C7.32 1.25, 7.86 1.83, 7.97 2.41 C8.07 3, 7.85 3.84, 7.37 4.32 C6.89 4.79, 5.88 5.06, 5.08 5.25 C4.28 5.44, 3.32 5.7, 2.58 5.45 C1.85 5.2, 1.11 4.26, 0.69 3.75 C0.28 3.25, -0.03 2.99, 0.09 2.42 C0.21 1.85, 0.7 0.72, 1.41 0.33 C2.12 -0.06, 3.86 0.17, 4.35 0.08 C4.84 -0.01, 4.37 -0.27, 4.36 -0.23 M3.89 -0.23 C4.66 -0.35, 5.41 -0.47, 6.17 -0.05 C6.92 0.38, 8.12 1.74, 8.43 2.34 C8.75 2.94, 8.45 3.01, 8.05 3.56 C7.65 4.12, 6.83 5.38, 6.02 5.67 C5.21 5.95, 4.02 5.45, 3.21 5.28 C2.41 5.12, 1.75 5.13, 1.19 4.68 C0.63 4.22, -0.14 3.24, -0.14 2.57 C-0.14 1.91, 0.62 1.1, 1.18 0.68 C1.74 0.25, 2.77 0.13, 3.22 0.01 C3.66 -0.11, 3.73 -0.02, 3.86 -0.04" stroke="none" stroke-width="0" fill="#ffffff"></path><path d="M4.64 0.33 C5.42 0.31, 6.33 0.26, 6.99 0.67 C7.65 1.09, 8.46 2.2, 8.6 2.84 C8.74 3.48, 8.37 4.03, 7.82 4.49 C7.27 4.94, 6.21 5.39, 5.29 5.58 C4.38 5.77, 3.17 5.88, 2.31 5.64 C1.45 5.39, 0.43 4.73, 0.13 4.1 C-0.18 3.46, 0.22 2.46, 0.48 1.83 C0.74 1.19, 1.01 0.59, 1.68 0.27 C2.36 -0.06, 4.01 -0.04, 4.55 -0.1 C5.09 -0.17, 4.9 -0.21, 4.93 -0.11 M3.87 -0.15 C4.79 -0.18, 6.38 0.05, 7.09 0.35 C7.81 0.66, 8.12 1.07, 8.17 1.69 C8.22 2.32, 7.8 3.5, 7.39 4.1 C6.99 4.7, 6.47 5.04, 5.74 5.29 C5.01 5.54, 3.86 5.81, 3 5.61 C2.15 5.4, 1.07 4.64, 0.61 4.06 C0.15 3.47, 0.08 2.58, 0.24 2.09 C0.4 1.59, 0.88 1.48, 1.57 1.08 C2.26 0.68, 4.08 -0.08, 4.4 -0.31 C4.72 -0.54, 3.6 -0.41, 3.48 -0.31" stroke="#ffffff" stroke-width="2" fill="none"></path></g><g stroke-linecap="round" transform="translate(1404.625849097251 161.55743170453087) rotate(0 0.8155970395898748 0.7287140748280763)"><path d="M0.95 -0.11 C1.17 -0.13, 1.37 0.31, 1.52 0.46 C1.67 0.6, 1.84 0.62, 1.83 0.76 C1.82 0.89, 1.57 1.12, 1.48 1.28 C1.38 1.43, 1.39 1.66, 1.25 1.7 C1.1 1.74, 0.74 1.59, 0.61 1.51 C0.47 1.43, 0.58 1.33, 0.44 1.24 C0.31 1.15, -0.23 1.16, -0.21 0.97 C-0.2 0.78, 0.34 0.3, 0.53 0.11 C0.72 -0.09, 0.92 -0.16, 0.92 -0.21 C0.92 -0.26, 0.51 -0.2, 0.53 -0.18 M1.03 -0.33 C1.05 -0.33, 0.77 0.33, 0.91 0.55 C1.06 0.77, 1.82 0.84, 1.92 1 C2.02 1.17, 1.67 1.42, 1.5 1.53 C1.33 1.63, 1.01 1.68, 0.9 1.61 C0.79 1.55, 0.96 1.13, 0.85 1.12 C0.75 1.11, 0.44 1.68, 0.27 1.56 C0.1 1.43, -0.23 0.62, -0.15 0.38 C-0.08 0.14, 0.5 0.25, 0.73 0.12 C0.96 -0.01, 1.17 -0.36, 1.24 -0.4 C1.32 -0.45, 1.3 -0.16, 1.17 -0.16" stroke="none" stroke-width="0" fill="#ffffff"></path><path d="M0.47 0.04 C0.65 0.1, 1.18 0.27, 1.31 0.34 C1.44 0.41, 1.18 0.42, 1.26 0.49 C1.35 0.56, 1.86 0.63, 1.81 0.76 C1.76 0.89, 1.14 1.19, 0.96 1.27 C0.78 1.36, 0.9 1.31, 0.72 1.27 C0.54 1.23, 0 1.18, -0.12 1.04 C-0.23 0.9, -0.03 0.61, 0.04 0.43 C0.12 0.25, 0.19 0.05, 0.33 -0.05 C0.48 -0.15, 0.87 -0.13, 0.91 -0.17 C0.95 -0.21, 0.58 -0.38, 0.58 -0.3 M1.22 -0.08 C1.39 -0.02, 1 0.39, 1.09 0.49 C1.18 0.58, 1.72 0.35, 1.77 0.47 C1.82 0.59, 1.55 1.11, 1.39 1.21 C1.24 1.3, 0.98 0.97, 0.84 1.05 C0.69 1.12, 0.66 1.61, 0.51 1.68 C0.37 1.75, 0.14 1.63, -0.02 1.47 C-0.17 1.31, -0.43 0.99, -0.4 0.71 C-0.38 0.43, -0.02 -0.14, 0.15 -0.2 C0.32 -0.25, 0.57 0.29, 0.62 0.38 C0.67 0.46, 0.35 0.34, 0.45 0.31" stroke="#ffffff" stroke-width="2" fill="none"></path></g><g stroke-linecap="round"><g transform="translate(1394.8836317337168 180.21503169371852) rotate(0 16.516737932101933 8.816722630298955)"><path d="M-0.54 0.51 C-0.68 1.8, -1.86 6.28, -0.48 8.72 C0.91 11.17, 4.59 13.51, 7.78 15.18 C10.98 16.86, 14.79 19.04, 18.7 18.8 C22.61 18.56, 28.8 16.65, 31.22 13.75 C33.63 10.85, 34.19 4.07, 33.21 1.39 C32.22 -1.29, 28.11 -2.86, 25.3 -2.32 C22.49 -1.77, 20.4 4.39, 16.34 4.66 C12.28 4.93, 3.75 0.07, 0.95 -0.7 M1.38 -0.27 C1.57 0.62, 0.71 4.4, 1.73 7.14 C2.75 9.88, 4.65 14, 7.49 16.15 C10.32 18.29, 15.03 20.42, 18.75 20.01 C22.47 19.6, 27.26 16.9, 29.81 13.7 C32.36 10.5, 34.77 3.15, 34.05 0.83 C33.33 -1.49, 28.08 -0.78, 25.51 -0.21 C22.94 0.36, 22.93 4, 18.64 4.24 C14.35 4.48, 2.88 1.98, -0.22 1.21" stroke="#2f9e44" stroke-width="2" fill="none"></path></g></g><mask></mask><g stroke-linecap="round"><g transform="translate(1451.7690166965463 191.75235654253538) rotate(0 -8.578904635126946 -7.059282662082467)"><path d="M0.43 0.33 C-2.39 -2.13, -14.18 -11.93, -17.1 -14.44 M-0.01 0.02 C-2.9 -2.37, -14.67 -11.36, -17.59 -13.76" stroke="#2f9e44" stroke-width="2" fill="none"></path></g></g><mask></mask><g stroke-linecap="round"><g transform="translate(1365.5596237219102 183.7403304914327) rotate(0 9.507606368518736 3.6821603047407905)"><path d="M0.21 0.19 C1.77 1.31, 6.39 5.6, 9.58 6.8 C12.77 8, 17.76 7.42, 19.36 7.38 M-0.34 -0.19 C1.38 0.77, 7.37 4.83, 10.63 5.95 C13.9 7.08, 17.77 6.41, 19.24 6.56" stroke="#2f9e44" stroke-width="2" fill="none"></path></g></g><mask></mask><g stroke-linecap="round"><g transform="translate(1447.3899103198423 188.28363484150032) rotate(0 5.463268511221031 7.348481445552267)" fill-rule="evenodd"><path d="M-1.51 -0.62 C-1.59 1.34, -1.29 9.99, -0.1 11.73 C1.08 13.47, 4.29 9.14, 5.62 9.82 C6.95 10.5, 6.98 16.18, 7.88 15.8 C8.78 15.42, 12.52 10.22, 11.02 7.54 C9.52 4.86, 0.52 0.74, -1.12 -0.3" stroke="none" stroke-width="0" fill="#40c057" fill-rule="evenodd"></path><path d="M-0.34 -0.04 C-0.25 1.83, -0.42 9.82, 0.29 11.32 C1.01 12.82, 2.62 8.39, 3.94 8.97 C5.25 9.55, 6.99 14.96, 8.16 14.81 C9.33 14.65, 12.22 10.47, 10.95 8.04 C9.68 5.61, 2.29 1.57, 0.52 0.24 M0.49 -0.53 C0.77 1.16, 0.61 8.83, 1.36 10.49 C2.11 12.16, 3.84 8.64, 5 9.43 C6.16 10.22, 7.44 15.46, 8.31 15.22 C9.19 14.99, 11.68 10.56, 10.25 8.01 C8.83 5.45, 1.35 1.32, -0.23 -0.11" stroke="#2f9e44" stroke-width="2" fill="none"></path></g></g><mask></mask><g stroke-linecap="round"><g transform="translate(1365.2459119530722 182.97918306814995) rotate(0 -3.8830988516901925 -4.364141793673127)" fill-rule="evenodd"><path d="M1.26 0.67 C1.2 -0.12, 0.74 -3.49, -0.51 -5.14 C-1.76 -6.79, -5.27 -9.79, -6.22 -9.22 C-7.18 -8.65, -5.8 -3.31, -6.23 -1.7 C-6.66 -0.09, -9.77 0.06, -8.8 0.44 C-7.82 0.82, -2.17 0.55, -0.38 0.59" stroke="none" stroke-width="0" fill="#40c057" fill-rule="evenodd"></path><path d="M-0.3 -0.13 C-0.48 -0.96, 0.56 -3.45, -0.62 -5.25 C-1.79 -7.05, -6.42 -11.39, -7.35 -10.94 C-8.28 -10.49, -6.09 -4.65, -6.21 -2.54 C-6.33 -0.42, -9.1 1.02, -8.09 1.74 C-7.08 2.45, -1.52 1.72, -0.15 1.74 M0.55 -0.67 C0.28 -1.4, 0.39 -3, -0.97 -4.65 C-2.32 -6.3, -6.69 -10.98, -7.59 -10.58 C-8.49 -10.18, -6.42 -4.35, -6.38 -2.23 C-6.33 -0.12, -8.43 1.52, -7.32 2.1 C-6.22 2.68, -1.04 1.37, 0.24 1.24" stroke="#2f9e44" stroke-width="2" fill="none"></path></g></g><mask></mask></svg>